<svg width="122" height="82" viewBox="0 0 122 82" fill="none" xmlns="http://www.w3.org/2000/svg">
<path d="M16.6002 18H12.8886V10.4206H5.93379V18H2.21016V0.438867H5.93379V7.32158H12.8886V0.438867H16.6002V18ZM32.9602 11.2614C32.9602 12.3825 32.808 13.3755 32.5037 14.2403C32.2074 15.1052 31.771 15.8379 31.1944 16.4385C30.6259 17.0311 29.9372 17.4795 29.1284 17.7838C28.3276 18.0881 27.4228 18.2402 26.4138 18.2402C25.4688 18.2402 24.6 18.0881 23.8072 17.7838C23.0225 17.4795 22.3378 17.0311 21.7532 16.4385C21.1767 15.8379 20.7282 15.1052 20.4079 14.2403C20.0956 13.3755 19.9395 12.3825 19.9395 11.2614C19.9395 9.77197 20.2037 8.51074 20.7322 7.47773C21.2607 6.44473 22.0135 5.65996 22.9904 5.12344C23.9674 4.58691 25.1325 4.31865 26.4858 4.31865C27.7431 4.31865 28.8562 4.58691 29.8251 5.12344C30.8021 5.65996 31.5668 6.44473 32.1193 7.47773C32.6799 8.51074 32.9602 9.77197 32.9602 11.2614ZM23.6751 11.2614C23.6751 12.1423 23.7712 12.883 23.9634 13.4836C24.1556 14.0842 24.4559 14.5366 24.8643 14.8409C25.2727 15.1452 25.8052 15.2974 26.4618 15.2974C27.1104 15.2974 27.635 15.1452 28.0354 14.8409C28.4438 14.5366 28.74 14.0842 28.9242 13.4836C29.1164 12.883 29.2125 12.1423 29.2125 11.2614C29.2125 10.3726 29.1164 9.63584 28.9242 9.05127C28.74 8.45869 28.4438 8.01426 28.0354 7.71797C27.627 7.42168 27.0944 7.27353 26.4378 7.27353C25.4688 7.27353 24.7642 7.60586 24.3237 8.27051C23.8913 8.93516 23.6751 9.93213 23.6751 11.2614ZM47.0259 18L45.9929 13.3034C45.9368 13.0231 45.8447 12.6107 45.7166 12.0662C45.5885 11.5137 45.4483 10.9251 45.2962 10.3005C45.1521 9.66787 45.0159 9.0833 44.8878 8.54678C44.7677 8.01025 44.6796 7.61787 44.6235 7.36963H44.5154C44.4594 7.61787 44.3713 8.01025 44.2512 8.54678C44.1311 9.0833 43.9949 9.66787 43.8428 10.3005C43.6986 10.9331 43.5625 11.5297 43.4344 12.0902C43.3063 12.6428 43.2102 13.0632 43.1461 13.3515L42.065 18H38.1252L34.3055 4.5709H37.957L39.5065 10.5167C39.6106 10.9331 39.7107 11.4296 39.8068 12.0062C39.9029 12.5747 39.987 13.1272 40.0591 13.6638C40.1392 14.1923 40.1992 14.6127 40.2393 14.925H40.3354C40.3514 14.6928 40.3834 14.3845 40.4314 14.0001C40.4875 13.6157 40.5476 13.2193 40.6116 12.8109C40.6837 12.3945 40.7478 12.0222 40.8038 11.6938C40.8679 11.3575 40.9159 11.1293 40.948 11.0092L42.6056 4.5709H46.6415L48.215 11.0092C48.2711 11.2414 48.3432 11.6098 48.4313 12.1143C48.5273 12.6187 48.6114 13.1393 48.6835 13.6758C48.7556 14.2043 48.7956 14.6207 48.8036 14.925H48.8997C48.9317 14.6527 48.9878 14.2483 49.0679 13.7118C49.148 13.1753 49.24 12.6147 49.3441 12.0302C49.4563 11.4376 49.5684 10.9331 49.6805 10.5167L51.29 4.5709H54.8815L51.0138 18H47.0259ZM7.42324 33.2946C9.225 33.2946 10.6063 33.687 11.5673 34.4718C12.5282 35.2565 13.0087 36.4497 13.0087 38.0513V47H10.4502L9.7415 45.1742H9.64541C9.26104 45.6547 8.86865 46.0471 8.46826 46.3514C8.06787 46.6557 7.60742 46.8799 7.08691 47.024C6.56641 47.1682 5.93379 47.2402 5.18906 47.2402C4.39629 47.2402 3.68359 47.0881 3.05098 46.7838C2.42637 46.4795 1.93389 46.015 1.57354 45.3904C1.21318 44.7578 1.03301 43.957 1.03301 42.9881C1.03301 41.5627 1.5335 40.5137 2.53447 39.841C3.53545 39.1604 5.03691 38.784 7.03887 38.7119L9.36914 38.6398V38.0513C9.36914 37.3466 9.18496 36.8301 8.8166 36.5018C8.44824 36.1734 7.93574 36.0093 7.2791 36.0093C6.63047 36.0093 5.99385 36.1014 5.36924 36.2855C4.74463 36.4697 4.12002 36.702 3.49541 36.9822L2.28223 34.5078C2.99492 34.1314 3.7917 33.8352 4.67256 33.6189C5.56143 33.4027 6.47832 33.2946 7.42324 33.2946ZM9.36914 40.7779L7.95176 40.826C6.7666 40.858 5.9418 41.0702 5.47734 41.4626C5.0209 41.855 4.79268 42.3715 4.79268 43.0121C4.79268 43.5727 4.95684 43.973 5.28516 44.2133C5.61348 44.4455 6.04189 44.5616 6.57041 44.5616C7.35518 44.5616 8.01582 44.3294 8.55234 43.8649C9.09688 43.4005 9.36914 42.7398 9.36914 41.883V40.7779ZM24.2877 33.3187C24.4719 33.3187 24.6841 33.3307 24.9243 33.3547C25.1726 33.3707 25.3728 33.3947 25.5249 33.4268L25.2486 36.8621C25.1285 36.8221 24.9563 36.794 24.7321 36.778C24.5159 36.754 24.3277 36.742 24.1676 36.742C23.6951 36.742 23.2347 36.8021 22.7862 36.9222C22.3458 37.0423 21.9494 37.2385 21.5971 37.5107C21.2447 37.775 20.9645 38.1273 20.7563 38.5678C20.5561 39.0002 20.456 39.5327 20.456 40.1653V47H16.7924V33.5709H19.5671L20.1076 35.8291H20.2878C20.5521 35.3727 20.8804 34.9562 21.2728 34.5799C21.6731 34.1955 22.1256 33.8912 22.6301 33.667C23.1426 33.4348 23.6951 33.3187 24.2877 33.3187ZM33.5007 33.3187C34.7419 33.3187 35.8109 33.5589 36.7078 34.0394C37.6047 34.5118 38.2974 35.2005 38.7858 36.1054C39.2743 37.0103 39.5186 38.1153 39.5186 39.4206V41.1983H30.8581C30.8981 42.2313 31.2064 43.0441 31.783 43.6367C32.3676 44.2213 33.1764 44.5136 34.2094 44.5136C35.0662 44.5136 35.851 44.4255 36.5637 44.2493C37.2764 44.0731 38.0091 43.8089 38.7618 43.4565V46.2913C38.0972 46.6196 37.4005 46.8599 36.6718 47.012C35.9511 47.1642 35.0742 47.2402 34.0412 47.2402C32.6959 47.2402 31.5027 46.992 30.4617 46.4955C29.4287 45.999 28.6159 45.2423 28.0233 44.2253C27.4388 43.2083 27.1465 41.9271 27.1465 40.3815C27.1465 38.812 27.4107 37.5067 27.9393 36.4657C28.4758 35.4167 29.2205 34.6319 30.1734 34.1114C31.1264 33.5829 32.2354 33.3187 33.5007 33.3187ZM33.5247 35.9252C32.812 35.9252 32.2194 36.1534 31.747 36.6099C31.2825 37.0663 31.0143 37.783 30.9422 38.76H36.0832C36.0752 38.2154 35.9751 37.731 35.7829 37.3065C35.5987 36.8821 35.3185 36.5458 34.9421 36.2976C34.5737 36.0493 34.1013 35.9252 33.5247 35.9252ZM12.9606 76L11.9276 71.3034C11.8716 71.0231 11.7795 70.6107 11.6514 70.0662C11.5232 69.5137 11.3831 68.9251 11.231 68.3005C11.0868 67.6679 10.9507 67.0833 10.8226 66.5468C10.7024 66.0103 10.6144 65.6179 10.5583 65.3696H10.4502C10.3941 65.6179 10.3061 66.0103 10.1859 66.5468C10.0658 67.0833 9.92969 67.6679 9.77754 68.3005C9.6334 68.9331 9.49727 69.5297 9.36914 70.0902C9.24102 70.6428 9.14492 71.0632 9.08086 71.3515L7.9998 76H4.05996L0.240234 62.5709H3.8918L5.44131 68.5167C5.54541 68.9331 5.64551 69.4296 5.7416 70.0062C5.8377 70.5747 5.92178 71.1272 5.99385 71.6638C6.07393 72.1923 6.13398 72.6127 6.17402 72.925H6.27012C6.28613 72.6928 6.31816 72.3845 6.36621 72.0001C6.42227 71.6157 6.48232 71.2193 6.54639 70.8109C6.61846 70.3945 6.68252 70.0222 6.73857 69.6938C6.80264 69.3575 6.85068 69.1293 6.88271 69.0092L8.54033 62.5709H12.5763L14.1498 69.0092C14.2059 69.2414 14.2779 69.6098 14.366 70.1143C14.4621 70.6187 14.5462 71.1393 14.6183 71.6758C14.6903 72.2043 14.7304 72.6207 14.7384 72.925H14.8345C14.8665 72.6527 14.9226 72.2483 15.0026 71.7118C15.0827 71.1753 15.1748 70.6147 15.2789 70.0302C15.391 69.4376 15.5031 68.9331 15.6152 68.5167L17.2248 62.5709H20.8163L16.9485 76H12.9606ZM28.5278 62.3187C29.769 62.3187 30.8381 62.5589 31.735 63.0394C32.6318 63.5118 33.3245 64.2005 33.813 65.1054C34.3015 66.0103 34.5457 67.1153 34.5457 68.4206V70.1983H25.8853C25.9253 71.2313 26.2336 72.0441 26.8102 72.6367C27.3947 73.2213 28.2035 73.5136 29.2365 73.5136C30.0934 73.5136 30.8781 73.4255 31.5908 73.2493C32.3035 73.0731 33.0362 72.8089 33.789 72.4565V75.2913C33.1243 75.6196 32.4276 75.8599 31.6989 76.012C30.9782 76.1642 30.1014 76.2402 29.0684 76.2402C27.723 76.2402 26.5299 75.992 25.4889 75.4955C24.4559 74.999 23.6431 74.2423 23.0505 73.2253C22.4659 72.2083 22.1736 70.9271 22.1736 69.3815C22.1736 67.812 22.4379 66.5067 22.9664 65.4657C23.5029 64.4167 24.2477 63.6319 25.2006 63.1114C26.1535 62.5829 27.2626 62.3187 28.5278 62.3187ZM28.5519 64.9252C27.8392 64.9252 27.2466 65.1534 26.7741 65.6099C26.3097 66.0663 26.0414 66.783 25.9693 67.76H31.1104C31.1023 67.2154 31.0022 66.731 30.8101 66.3065C30.6259 65.8821 30.3456 65.5458 29.9692 65.2976C29.6009 65.0493 29.1284 64.9252 28.5519 64.9252ZM48.167 76.2402C46.6695 76.2402 45.4483 75.6557 44.5034 74.4865C43.5665 73.3094 43.098 71.5837 43.098 69.3095C43.098 67.0112 43.5745 65.2735 44.5274 64.0964C45.4804 62.9112 46.7256 62.3187 48.2631 62.3187C48.9037 62.3187 49.4683 62.4067 49.9567 62.5829C50.4452 62.7591 50.8656 62.9953 51.218 63.2916C51.5783 63.5879 51.8826 63.9202 52.1309 64.2886H52.251C52.2029 64.0323 52.1429 63.656 52.0708 63.1595C52.0067 62.655 51.9747 62.1385 51.9747 61.61V57.3098H55.6503V76H52.8396L52.1309 74.2583H51.9747C51.7425 74.6267 51.4502 74.963 51.0979 75.2673C50.7535 75.5636 50.3411 75.7998 49.8606 75.976C49.3802 76.1521 48.8156 76.2402 48.167 76.2402ZM49.4522 73.3214C50.4532 73.3214 51.1579 73.0251 51.5663 72.4325C51.9827 71.8319 52.2029 70.9311 52.227 69.7299V69.3335C52.227 68.0282 52.0268 67.0312 51.6264 66.3426C51.226 65.6459 50.4813 65.2976 49.3922 65.2976C48.5834 65.2976 47.9508 65.6459 47.4943 66.3426C47.0379 67.0393 46.8097 68.0442 46.8097 69.3575C46.8097 70.6708 47.0379 71.6598 47.4943 72.3244C47.9588 72.9891 48.6114 73.3214 49.4522 73.3214ZM71.6859 69.2614C71.6859 70.3825 71.5338 71.3755 71.2295 72.2403C70.9332 73.1052 70.4968 73.8379 69.9202 74.4385C69.3517 75.0311 68.663 75.4795 67.8542 75.7838C67.0534 76.0881 66.1485 76.2402 65.1396 76.2402C64.1946 76.2402 63.3258 76.0881 62.533 75.7838C61.7482 75.4795 61.0636 75.0311 60.479 74.4385C59.9024 73.8379 59.454 73.1052 59.1337 72.2403C58.8214 71.3755 58.6652 70.3825 58.6652 69.2614C58.6652 67.772 58.9295 66.5107 59.458 65.4777C59.9865 64.4447 60.7393 63.66 61.7162 63.1234C62.6932 62.5869 63.8583 62.3187 65.2116 62.3187C66.4688 62.3187 67.5819 62.5869 68.5509 63.1234C69.5278 63.66 70.2926 64.4447 70.8451 65.4777C71.4057 66.5107 71.6859 67.772 71.6859 69.2614ZM62.4009 69.2614C62.4009 70.1423 62.497 70.883 62.6892 71.4836C62.8813 72.0842 63.1816 72.5366 63.59 72.8409C63.9984 73.1452 64.531 73.2974 65.1876 73.2974C65.8362 73.2974 66.3607 73.1452 66.7611 72.8409C67.1695 72.5366 67.4658 72.0842 67.65 71.4836C67.8422 70.883 67.9383 70.1423 67.9383 69.2614C67.9383 68.3726 67.8422 67.6358 67.65 67.0513C67.4658 66.4587 67.1695 66.0143 66.7611 65.718C66.3527 65.4217 65.8202 65.2735 65.1636 65.2735C64.1946 65.2735 63.4899 65.6059 63.0495 66.2705C62.6171 66.9352 62.4009 67.9321 62.4009 69.2614ZM78.3765 62.5709V76H74.7129V62.5709H78.3765ZM76.5507 57.3098C77.0952 57.3098 77.5637 57.4379 77.9561 57.6941C78.3484 57.9424 78.5446 58.4108 78.5446 59.0995C78.5446 59.7802 78.3484 60.2526 77.9561 60.5169C77.5637 60.7731 77.0952 60.9013 76.5507 60.9013C75.9981 60.9013 75.5257 60.7731 75.1333 60.5169C74.7489 60.2526 74.5567 59.7802 74.5567 59.0995C74.5567 58.4108 74.7489 57.9424 75.1333 57.6941C75.5257 57.4379 75.9981 57.3098 76.5507 57.3098ZM89.8597 62.3187C91.2931 62.3187 92.4462 62.711 93.319 63.4958C94.1919 64.2726 94.6283 65.5218 94.6283 67.2435V76H90.9648V68.1563C90.9648 67.1954 90.7886 66.4707 90.4362 65.9822C90.0919 65.4937 89.5474 65.2495 88.8026 65.2495C87.6815 65.2495 86.9168 65.6299 86.5084 66.3906C86.1 67.1514 85.8958 68.2484 85.8958 69.6818V76H82.2322V62.5709H85.031L85.5234 64.2886H85.7276C86.0159 63.8241 86.3723 63.4478 86.7967 63.1595C87.2291 62.8712 87.7056 62.659 88.2261 62.5229C88.7546 62.3867 89.2991 62.3187 89.8597 62.3187ZM102.328 81.9098C100.454 81.9098 99.0206 81.5814 98.0276 80.9248C97.0427 80.2762 96.5502 79.3633 96.5502 78.1861C96.5502 77.3773 96.8024 76.7007 97.3069 76.1562C97.8114 75.6116 98.5521 75.2232 99.5291 74.991C99.1527 74.8309 98.8244 74.5706 98.5441 74.2103C98.2639 73.8419 98.1237 73.4535 98.1237 73.0451C98.1237 72.5326 98.2719 72.1082 98.5682 71.7719C98.8645 71.4275 99.2929 71.0912 99.8534 70.7629C99.1487 70.4586 98.5882 69.9701 98.1718 69.2975C97.7634 68.6248 97.5592 67.832 97.5592 66.9191C97.5592 65.9422 97.7714 65.1134 98.1958 64.4327C98.6282 63.744 99.2528 63.2195 100.07 62.8592C100.894 62.4988 101.895 62.3187 103.073 62.3187C103.321 62.3187 103.609 62.3347 103.937 62.3667C104.266 62.3987 104.566 62.4348 104.838 62.4748C105.119 62.5148 105.307 62.5469 105.403 62.5709H110.087V64.4327L107.985 64.9732C108.178 65.2695 108.322 65.5858 108.418 65.9222C108.514 66.2585 108.562 66.6148 108.562 66.9912C108.562 68.4326 108.057 69.5577 107.048 70.3665C106.047 71.1673 104.654 71.5677 102.868 71.5677C102.444 71.5437 102.044 71.5116 101.667 71.4716C101.483 71.6157 101.343 71.7679 101.247 71.928C101.151 72.0882 101.103 72.2563 101.103 72.4325C101.103 72.6087 101.175 72.7568 101.319 72.877C101.471 72.9891 101.695 73.0771 101.992 73.1412C102.296 73.1973 102.672 73.2253 103.121 73.2253H105.403C106.876 73.2253 107.997 73.5416 108.766 74.1742C109.543 74.8068 109.931 75.7357 109.931 76.9609C109.931 78.5305 109.275 79.7477 107.961 80.6125C106.656 81.4773 104.778 81.9098 102.328 81.9098ZM102.484 79.5194C103.357 79.5194 104.106 79.4354 104.73 79.2672C105.363 79.107 105.847 78.8748 106.184 78.5705C106.52 78.2742 106.688 77.9179 106.688 77.5015C106.688 77.1651 106.588 76.8969 106.388 76.6967C106.196 76.5045 105.899 76.3684 105.499 76.2883C105.107 76.2082 104.602 76.1682 103.985 76.1682H102.088C101.639 76.1682 101.235 76.2402 100.874 76.3844C100.522 76.5285 100.242 76.7287 100.034 76.985C99.8254 77.2492 99.7213 77.5535 99.7213 77.8979C99.7213 78.4023 99.9615 78.7987 100.442 79.087C100.93 79.3753 101.611 79.5194 102.484 79.5194ZM103.073 69.3335C103.761 69.3335 104.266 69.1213 104.586 68.6969C104.906 68.2725 105.067 67.6959 105.067 66.9672C105.067 66.1584 104.898 65.5538 104.562 65.1534C104.234 64.745 103.737 64.5408 103.073 64.5408C102.4 64.5408 101.895 64.745 101.559 65.1534C101.223 65.5538 101.055 66.1584 101.055 66.9672C101.055 67.6959 101.219 68.2725 101.547 68.6969C101.883 69.1213 102.392 69.3335 103.073 69.3335ZM113.703 70.1743V69.2854C113.703 68.7409 113.779 68.2604 113.931 67.844C114.083 67.4196 114.328 67.0192 114.664 66.6429C115 66.2585 115.445 65.8661 115.997 65.4657C116.494 65.1134 116.89 64.7971 117.186 64.5168C117.491 64.2365 117.711 63.9603 117.847 63.688C117.991 63.4077 118.063 63.0914 118.063 62.7391C118.063 62.2186 117.871 61.8222 117.487 61.5499C117.102 61.2776 116.566 61.1415 115.877 61.1415C115.188 61.1415 114.504 61.2496 113.823 61.4658C113.15 61.682 112.466 61.9663 111.769 62.3187L110.46 59.6881C111.261 59.2396 112.129 58.8793 113.066 58.607C114.003 58.3268 115.028 58.1866 116.141 58.1866C117.855 58.1866 119.18 58.599 120.117 59.4238C121.062 60.2406 121.535 61.2816 121.535 62.5469C121.535 63.2195 121.426 63.8041 121.21 64.3006C121.002 64.7891 120.682 65.2455 120.249 65.6699C119.825 66.0863 119.292 66.5268 118.652 66.9912C118.171 67.3436 117.803 67.6398 117.547 67.8801C117.29 68.1203 117.114 68.3605 117.018 68.6008C116.93 68.833 116.886 69.1173 116.886 69.4536V70.1743H113.703ZM113.319 74.2823C113.319 73.5296 113.523 73.0011 113.931 72.6968C114.348 72.3925 114.848 72.2403 115.433 72.2403C116.001 72.2403 116.49 72.3925 116.898 72.6968C117.314 73.0011 117.523 73.5296 117.523 74.2823C117.523 75.003 117.314 75.5235 116.898 75.8438C116.49 76.1642 116.001 76.3243 115.433 76.3243C114.848 76.3243 114.348 76.1642 113.931 75.8438C113.523 75.5235 113.319 75.003 113.319 74.2823Z" fill="black"/>
</svg>
