<svg width="269" height="181" viewBox="0 0 269 181" fill="none" xmlns="http://www.w3.org/2000/svg">
<g clip-path="url(#clip0_27_9)">
<path d="M212.587 145H207.287C207.128 145 207 145.128 207 145.286V146.409C207 146.566 207.128 146.695 207.287 146.695H212.587C212.746 146.695 212.874 146.567 212.874 146.409V145.286C212.874 145.128 212.746 145 212.587 145H212.587Z" fill="#845DE2"/>
<path d="M215.603 147.631H209.193C209.035 147.631 208.906 147.759 208.906 147.917V149.039C208.906 149.197 209.034 149.325 209.193 149.325H215.603C215.761 149.325 215.89 149.197 215.89 149.039V147.917C215.89 147.759 215.762 147.631 215.603 147.631H215.603Z" fill="#6E55FF"/>
<path d="M215.603 150.261H214.114C213.955 150.261 213.827 150.389 213.827 150.547V151.67C213.827 151.827 213.955 151.956 214.114 151.956H215.603C215.761 151.956 215.89 151.828 215.89 151.67V150.547C215.89 150.389 215.762 150.261 215.603 150.261Z" fill="#6E55FF"/>
<path d="M212.587 150.261H211.098C210.94 150.261 210.811 150.389 210.811 150.547V151.67C210.811 151.827 210.939 151.956 211.098 151.956H212.587C212.745 151.956 212.874 151.828 212.874 151.67V150.547C212.874 150.389 212.746 150.261 212.587 150.261Z" fill="#6E55FF"/>
<path d="M215.603 145H214.114C213.955 145 213.827 145.128 213.827 145.286V146.409C213.827 146.566 213.955 146.695 214.114 146.695H215.603C215.761 146.695 215.89 146.567 215.89 146.409V145.286C215.89 145.128 215.762 145 215.603 145Z" fill="#6E55FF"/>
<path d="M223.267 145.391H224.535C224.604 145.391 224.66 145.447 224.66 145.515V147.662C224.961 147.238 225.503 146.947 226.186 146.947C227.313 146.947 228.067 147.724 228.067 149.05V151.808C228.067 151.876 228.012 151.931 227.943 151.931H226.684C226.615 151.931 226.559 151.876 226.559 151.808V149.254C226.559 148.582 226.187 148.211 225.61 148.211C225.033 148.211 224.66 148.582 224.66 149.254V151.808C224.66 151.876 224.604 151.931 224.536 151.931H223.267C223.199 151.931 223.143 151.876 223.143 151.808V145.515C223.143 145.447 223.199 145.392 223.267 145.392L223.267 145.391Z" fill="#172351"/>
<path d="M231.324 151.922C229.868 151.922 228.821 150.95 228.821 149.385C228.821 147.821 229.851 146.849 231.324 146.849C232.797 146.849 233.791 147.803 233.791 149.306C233.791 149.412 233.786 149.524 233.776 149.636C233.77 149.7 233.716 149.748 233.652 149.748H230.33C230.383 150.393 230.782 150.693 231.271 150.693C231.605 150.693 231.825 150.562 231.964 150.378C232.038 150.279 232.15 150.216 232.274 150.216H233.509C233.594 150.216 233.655 150.299 233.628 150.379C233.334 151.262 232.487 151.922 231.324 151.922ZM230.339 148.908H232.238C232.238 148.369 231.812 148.06 231.306 148.06C230.8 148.06 230.428 148.36 230.339 148.908Z" fill="#172351"/>
<path d="M241.413 149.253C241.413 148.608 241.04 148.255 240.463 148.255C239.886 148.255 239.514 148.608 239.514 149.253V151.807C239.514 151.876 239.458 151.931 239.389 151.931H238.13C238.061 151.931 238.005 151.876 238.005 151.807V149.253C238.005 148.608 237.633 148.255 237.056 148.255C236.479 148.255 236.106 148.608 236.106 149.253V151.807C236.106 151.876 236.051 151.931 235.982 151.931H234.714C234.645 151.931 234.589 151.876 234.589 151.807V147.124C234.589 147.055 234.645 147 234.714 147H235.982C236.051 147 236.106 147.055 236.106 147.124V147.618C236.399 147.221 236.905 146.946 237.553 146.946C238.298 146.946 238.902 147.273 239.239 147.866C239.567 147.344 240.188 146.946 240.907 146.946C242.132 146.946 242.922 147.724 242.922 149.05V151.807C242.922 151.876 242.866 151.931 242.797 151.931H241.538C241.469 151.931 241.414 151.876 241.414 151.807V149.253H241.413Z" fill="#172351"/>
<path d="M246.187 151.922C244.731 151.922 243.684 150.95 243.684 149.385C243.684 147.821 244.714 146.849 246.187 146.849C247.66 146.849 248.654 147.803 248.654 149.306C248.654 149.412 248.649 149.524 248.639 149.636C248.633 149.7 248.579 149.748 248.515 149.748H245.193C245.246 150.393 245.645 150.693 246.133 150.693C246.526 150.693 246.76 150.513 246.892 150.277C246.913 150.239 246.955 150.216 246.999 150.216H248.372C248.457 150.216 248.518 150.299 248.491 150.379C248.197 151.262 247.35 151.922 246.187 151.922V151.922ZM245.202 148.908H247.101C247.101 148.369 246.675 148.06 246.169 148.06C245.663 148.06 245.29 148.36 245.202 148.908Z" fill="#172351"/>
<path d="M249.577 145.391H250.845C250.914 145.391 250.969 145.447 250.969 145.515V147.662C251.271 147.238 251.812 146.947 252.496 146.947C253.623 146.947 254.377 147.724 254.377 149.05V151.808C254.377 151.876 254.321 151.931 254.253 151.931H252.993C252.924 151.931 252.869 151.876 252.869 151.808V149.254C252.869 148.582 252.496 148.211 251.919 148.211C251.342 148.211 250.97 148.582 250.97 149.254V151.808C250.97 151.876 250.914 151.931 250.845 151.931H249.577C249.508 151.931 249.453 151.876 249.453 151.808V145.515C249.453 145.447 249.508 145.392 249.577 145.392L249.577 145.391Z" fill="#172351"/>
<path d="M256.826 147H255.557C255.488 147 255.433 147.055 255.433 147.124V151.808C255.433 151.876 255.488 151.931 255.557 151.931H256.826C256.894 151.931 256.95 151.876 256.95 151.808V147.124C256.95 147.055 256.894 147 256.826 147Z" fill="#172351"/>
<path d="M259.931 146.849C260.659 146.849 261.191 147.176 261.458 147.618V147.044C261.458 146.975 261.513 146.92 261.582 146.92H262.85C262.919 146.92 262.975 146.975 262.975 147.044V151.842C262.975 153.159 262.211 154.281 260.499 154.281C259.088 154.281 258.149 153.6 257.956 152.51C257.942 152.434 258.001 152.364 258.079 152.364H259.344C259.395 152.364 259.441 152.394 259.459 152.441C259.585 152.768 259.942 152.974 260.428 152.974C261.005 152.974 261.457 152.673 261.457 151.842V151.144C261.182 151.577 260.659 151.922 259.931 151.922C258.715 151.922 257.748 150.932 257.748 149.376C257.748 147.821 258.715 146.849 259.931 146.849H259.931ZM260.375 148.165C259.807 148.165 259.292 148.59 259.292 149.376C259.292 150.163 259.807 150.605 260.375 150.605C260.943 150.605 261.458 150.172 261.458 149.385C261.458 148.599 260.952 148.165 260.375 148.165Z" fill="#172351"/>
<path d="M264.199 145.391H265.468C265.536 145.391 265.592 145.447 265.592 145.515V147.662C265.893 147.238 266.435 146.947 267.118 146.947C268.245 146.947 269 147.724 269 149.05V151.808C269 151.876 268.944 151.931 268.875 151.931H267.616C267.547 151.931 267.491 151.876 267.491 151.808V149.254C267.491 148.582 267.119 148.211 266.542 148.211C265.965 148.211 265.592 148.582 265.592 149.254V151.808C265.592 151.876 265.537 151.931 265.468 151.931H264.2C264.131 151.931 264.075 151.876 264.075 151.808V145.515C264.075 145.447 264.131 145.392 264.2 145.392L264.199 145.391Z" fill="#172351"/>
<path d="M222.3 150.774V151.807C222.3 151.876 222.244 151.931 222.176 151.931H221.528C220.498 151.931 219.779 151.498 219.779 150.217V145.515C219.779 145.447 219.835 145.392 219.904 145.392H221.172C221.24 145.392 221.296 145.447 221.296 145.515V146.673H221.295V148.379H221.296V150.235C221.296 150.526 221.42 150.65 221.757 150.65H222.175C222.244 150.65 222.299 150.706 222.299 150.774L222.3 150.774Z" fill="#172351"/>
<path d="M256.84 145.005H255.541C255.453 145.005 255.381 145.076 255.381 145.164V146.175C255.381 146.263 255.453 146.335 255.541 146.335H256.84C256.929 146.335 257.001 146.263 257.001 146.175V145.164C257.001 145.076 256.929 145.004 256.84 145.004V145.005Z" fill="#172351"/>
<path d="M222.464 147.389H221.587C221.527 147.389 221.479 147.452 221.479 147.53V148.424C221.479 148.502 221.527 148.565 221.587 148.565H222.464C222.524 148.565 222.573 148.502 222.573 148.424V147.53C222.573 147.452 222.524 147.389 222.464 147.389Z" fill="#172351"/>
</g>
<mask id="mask0_27_9" style="mask-type:alpha" maskUnits="userSpaceOnUse" x="0" y="0" width="195" height="181">
<path d="M0 0H195V181H0V0Z" fill="#D9D9D9"/>
</mask>
<g mask="url(#mask0_27_9)">
<mask id="mask1_27_9" style="mask-type:alpha" maskUnits="userSpaceOnUse" x="-18" y="0" width="1228" height="181">
<rect x="-18" y="6.10352e-05" width="1228" height="181" rx="10" fill="url(#paint0_linear_27_9)"/>
<rect x="-18" y="6.10352e-05" width="1228" height="181" rx="10" fill="url(#paint1_linear_27_9)"/>
</mask>
<g mask="url(#mask1_27_9)">
<path d="M53.3126 200C45.8054 184.886 38.2534 165.122 35.53 154.86C38.9231 150.128 40.4968 144.124 39.8612 138.336L22.2428 100.16C11.071 111.524 6.31826 127.994 6.11659 143.929C5.92353 159.213 9.61658 182.387 15.7857 200H53.3126Z" fill="#E8614E"/>
<path d="M21.6998 133.235C23.1421 137.923 24.5525 141.863 27.5233 144.909L29.7525 152.631C31.3387 151.869 32.8237 150.495 34.0592 149.077C35.2563 149.547 36.5874 149.962 38.0664 150.325C39.6617 146.565 40.3076 142.398 39.8616 138.336L22.2432 100.16C21.0366 101.388 19.9093 102.678 18.8496 104.018C18.8763 110.146 19.2081 125.138 21.6993 133.235L21.6998 133.235Z" fill="#C74F3E"/>
<path d="M37.9555 37.6649C31.5558 38.4879 27.2901 41.1192 24.1977 46.5187C21.105 51.9182 20.6926 61.8705 20.3353 68.0827C19.1567 88.572 19.8966 105.361 23.1764 125.62C24.1607 131.698 25.1596 137.581 29.427 142.02C35.3346 148.162 44.2139 148.69 52.7195 149.226C83.8657 151.19 115.478 150.171 146.768 150.168C152.585 150.168 158.386 149.19 163.789 147.038C169.194 144.884 173.959 140.082 174.354 134.271L37.9555 37.6649Z" fill="#011635" stroke="#011635" stroke-width="0.517113" stroke-linecap="round" stroke-linejoin="round"/>
<path d="M174.781 133.894C179.999 106.352 180.497 77.9191 176.246 50.2109C175.362 44.4463 170.73 40 164.953 39.2093C122.764 33.4361 80.0103 33.047 37.8078 37.6808C31.6611 38.3556 26.7925 43.191 26.1008 49.3361C22.849 78.1845 23.5627 104.326 29.7771 133.425C30.9936 139.122 35.8057 143.358 41.6116 143.829C81.5823 147.06 121.845 147.398 162.713 144.666C168.722 144.264 173.66 139.811 174.781 133.894Z" fill="#CFB3FC" stroke="#011635" stroke-width="0.517113" stroke-linecap="round" stroke-linejoin="round"/>
<path d="M104.722 134.867C103.423 133.669 101.372 133.366 99.7889 134.149C98.2048 134.932 97.1986 136.755 97.3925 138.51C97.5855 140.266 98.9727 141.829 100.696 142.22C102.418 142.609 104.349 141.789 105.255 140.271C106.158 138.754 106.32 136.342 104.722 134.867Z" fill="#9374C4" stroke="#011635" stroke-width="0.517113" stroke-linecap="round" stroke-linejoin="round"/>
<path d="M153.136 47.6456C152.716 46.4627 150.893 46.1193 150.071 47.0682C149.249 48.0167 149.848 49.7718 151.079 50.0196C152.309 50.267 153.571 48.8703 153.136 47.6456Z" fill="#FFDE82" stroke="#011635" stroke-width="0.517113" stroke-linecap="round" stroke-linejoin="round"/>
<path d="M160.929 47.7892C160.509 46.6063 158.686 46.2629 157.864 47.2118C157.042 48.1602 157.641 49.9154 158.872 50.1632C160.102 50.4105 161.364 49.0139 160.928 47.7892H160.929Z" fill="#FFDE82" stroke="#011635" stroke-width="0.517113" stroke-linecap="round" stroke-linejoin="round"/>
<path d="M168.722 47.9357C168.302 46.7528 166.479 46.4093 165.657 47.3582C164.835 48.3067 165.434 50.0619 166.665 50.3097C167.895 50.557 169.157 49.1604 168.722 47.9357Z" fill="#FFDE82" stroke="#011635" stroke-width="0.517113" stroke-linecap="round" stroke-linejoin="round"/>
<g style="mix-blend-mode:soft-light" opacity="0.75">
<path d="M47.7904 41.9251C42.0293 42.3702 30.8205 45.1743 32.0038 50.2536C33.2858 55.757 40.4 47.7077 48.6777 47.7077C56.8412 47.7077 56.7778 41.2304 47.7904 41.9251Z" fill="white"/>
</g>
<g style="mix-blend-mode:soft-light" opacity="0.75">
<path d="M64.3869 43.151C63.6629 42.0431 62.1051 41.557 60.8933 42.0892C59.682 42.6214 58.9856 44.1292 59.3989 45.3862C59.8117 46.6433 61.3001 47.4452 62.5679 47.0673C63.8361 46.6889 65.4991 44.8536 64.3869 43.151Z" fill="white"/>
</g>
<path d="M175.785 128.223C179.615 105.052 180.133 81.332 177.317 58.015C126.928 55.7595 76.4386 54.9033 25.4612 55.5535C23.1549 80.1578 23.8875 103.05 28.6527 127.876C77.6879 128.965 126.745 129.084 175.785 128.223H175.785Z" fill="#FFDE82"/>
<g filter="url(#filter0_d_27_9)">
<path d="M108.075 87.2301C113.09 90.5702 114.673 98.124 111.42 103.196C108.166 108.267 100.64 109.98 95.5134 106.814C90.3867 103.649 88.5453 96.1538 91.6217 90.9732C94.6981 85.7921 102.394 83.4457 108.075 87.2301Z" fill="#32E69E"/>
<g style="mix-blend-mode:multiply" opacity="0.12">
<path d="M111.42 103.196C113.234 100.367 113.542 96.7671 112.592 93.5562C107.338 102.687 96.117 102.682 91.4341 102.236C92.3537 104.098 93.7352 105.717 95.5132 106.815C100.64 109.98 108.166 108.268 111.42 103.196V103.196Z" fill="#01352E"/>
</g>
<path d="M98.7067 94.2448C98.3137 93.2864 96.8063 93.0641 96.1531 93.8682C95.4998 94.6723 96.0272 96.1025 97.0455 96.2904C98.0642 96.4787 99.1411 95.3036 98.7072 94.2448H98.7067Z" fill="#011635" stroke="#011635" stroke-width="0.517113" stroke-linecap="round" stroke-linejoin="round"/>
<path d="M107.841 94.2448C107.448 93.2864 105.94 93.0641 105.287 93.8682C104.634 94.6723 105.161 96.1025 106.179 96.2904C107.198 96.4787 108.275 95.3036 107.841 94.2448H107.841Z" fill="#011635" stroke="#011635" stroke-width="0.517113" stroke-linecap="round" stroke-linejoin="round"/>
<path d="M108.317 98.3881C104.024 98.3545 99.7299 98.3218 95.25 98.5765C95.7038 101.591 98.5302 104.067 101.579 104.12C104.627 104.173 107.537 101.797 108.317 98.3881Z" fill="#011635" stroke="#011635" stroke-width="0.517113" stroke-linecap="round" stroke-linejoin="round"/>
<g style="mix-blend-mode:soft-light" opacity="0.75">
<path d="M98.6087 88.1847C98.014 86.8221 95.1138 88.1847 93.8353 89.6339C92.5567 91.0831 92.1516 92.3617 93.0256 92.7797C93.4931 93.0033 94.5635 91.4968 95.3108 90.9762C96.6268 90.0601 99.1202 89.3568 98.6087 88.1847Z" fill="white"/>
</g>
<g style="mix-blend-mode:soft-light" opacity="0.75">
<path d="M92.5602 93.1288C91.891 92.6444 91.4273 93.7894 92.0026 94.1944C92.5779 94.5995 93.2665 93.6403 92.5602 93.1288Z" fill="white"/>
</g>
<path d="M108.075 87.2301C113.09 90.5702 114.673 98.124 111.42 103.196C108.166 108.267 100.64 109.98 95.5134 106.814C90.3867 103.649 88.5453 96.1538 91.6217 90.9732C94.6981 85.7921 102.394 83.4457 108.075 87.2301Z" stroke="#011635" stroke-width="0.517113" stroke-linecap="round" stroke-linejoin="round"/>
<path d="M67.9068 86.7992C72.9215 90.1393 74.5039 97.693 71.2508 102.765C67.9977 107.836 60.4716 109.549 55.3448 106.383C50.2181 103.218 48.3759 95.7228 51.4531 90.5422C54.5295 85.3612 62.225 83.0148 67.9068 86.7992Z" fill="#FC5353"/>
<g style="mix-blend-mode:multiply" opacity="0.18">
<path d="M71.251 102.765C72.4253 100.935 72.9661 98.7803 72.9463 96.6175C65.5925 103.416 55.9794 103.053 51.6016 102.436C52.5091 104.032 53.7713 105.412 55.345 106.384C60.4718 109.549 67.9979 107.837 71.251 102.766V102.765Z" fill="#011635"/>
</g>
<path d="M58.4475 93.8875C58.0545 92.9292 56.5467 92.7068 55.8939 93.5105C55.2406 94.3146 55.7676 95.7448 56.7863 95.9327C57.805 96.121 58.8819 94.9463 58.448 93.8871L58.4475 93.8875Z" fill="#011635" stroke="#011635" stroke-width="0.517113" stroke-linecap="round" stroke-linejoin="round"/>
<path d="M67.5813 93.8875C67.1883 92.9292 65.6805 92.7068 65.0277 93.5105C64.3744 94.3146 64.9014 95.7448 65.9201 95.9327C66.9384 96.121 68.0157 94.9463 67.5818 93.8871L67.5813 93.8875Z" fill="#011635" stroke="#011635" stroke-width="0.517113" stroke-linecap="round" stroke-linejoin="round"/>
<path d="M55.2544 101.98C56.3317 99.6245 58.8466 98.0016 61.4365 97.9904C64.0259 97.9792 66.555 99.5814 67.6513 101.928" stroke="#011635" stroke-width="0.517113" stroke-linecap="round" stroke-linejoin="round"/>
<g style="mix-blend-mode:soft-light" opacity="0.75">
<path d="M58.9928 87.6813C58.6989 86.283 55.5459 86.9651 53.8282 88.9789C52.1105 90.9926 52.7065 92.409 53.6377 91.7777C54.5689 91.1464 55.0684 89.7308 56.8382 89.2034C57.5708 88.9853 59.2716 89.0077 58.9928 87.6813Z" fill="white"/>
</g>
<g style="mix-blend-mode:soft-light" opacity="0.75">
<path d="M51.9074 93.688C51.0607 93.6229 51.2783 92.3068 52.1406 92.3055C53.0028 92.3043 52.7542 93.753 51.9074 93.688Z" fill="white"/>
</g>
<path d="M67.9068 86.7992C72.9215 90.1393 74.5039 97.693 71.2508 102.765C67.9977 107.836 60.4716 109.549 55.3448 106.383C50.2181 103.218 48.3759 95.7228 51.4531 90.5422C54.5295 85.3612 62.225 83.0148 67.9068 86.7992Z" stroke="#011635" stroke-width="0.517113" stroke-linecap="round" stroke-linejoin="round"/>
<path d="M148.393 87.4029C153.407 90.743 154.99 98.2972 151.737 103.369C148.483 108.44 140.958 110.152 135.831 106.988C130.704 103.822 128.862 96.327 131.939 91.1464C135.015 85.9653 142.711 83.6185 148.393 87.4029Z" fill="#CFB3FC"/>
<g style="mix-blend-mode:multiply" opacity="0.12">
<path d="M151.736 103.369C153.385 100.798 153.79 97.5901 153.137 94.6154C146.375 103.673 135.047 103.075 131.908 102.712C132.825 104.446 134.15 105.951 135.831 106.988C140.957 110.153 148.483 108.441 151.736 103.369V103.369Z" fill="#130135"/>
</g>
<path d="M138.932 95.0316C138.539 94.0733 137.031 93.8509 136.378 94.6546C135.725 95.4587 136.252 96.8889 137.27 97.0768C138.29 97.2651 139.367 96.09 138.932 95.0312L138.932 95.0316Z" fill="#011635" stroke="#011635" stroke-width="0.517113" stroke-linecap="round" stroke-linejoin="round"/>
<path d="M148.066 95.0316C147.672 94.0733 146.165 93.8509 145.512 94.6546C144.859 95.4587 145.386 96.8889 146.404 97.0768C147.423 97.2651 148.501 96.09 148.066 95.0312L148.066 95.0316Z" fill="#011635" stroke="#011635" stroke-width="0.517113" stroke-linecap="round" stroke-linejoin="round"/>
<path d="M135.582 100.083C139.948 100.102 144.314 100.121 148.68 100.139" stroke="#011635" stroke-width="0.517113" stroke-linecap="round" stroke-linejoin="round"/>
<g style="mix-blend-mode:soft-light" opacity="0.75">
<path d="M139.743 88.2916C139.449 86.8932 136.296 87.5754 134.579 89.5891C132.861 91.6028 133.457 93.0188 134.388 92.388C135.319 91.7567 135.819 90.3411 137.589 89.8136C138.321 89.5951 140.022 89.618 139.743 88.2916Z" fill="white"/>
</g>
<g style="mix-blend-mode:soft-light" opacity="0.75">
<path d="M132.658 94.2983C131.811 94.2332 132.029 92.9171 132.891 92.9158C133.753 92.9145 133.505 94.3633 132.658 94.2983Z" fill="white"/>
</g>
<path d="M148.393 87.4029C153.407 90.743 154.99 98.2972 151.737 103.369C148.483 108.44 140.958 110.152 135.831 106.988C130.704 103.822 128.862 96.327 131.939 91.1464C135.015 85.9653 142.711 83.6185 148.393 87.4029Z" stroke="#011635" stroke-width="0.517113" stroke-linecap="round" stroke-linejoin="round"/>
</g>
<path d="M59.4648 75V71.3636H59.9052V72.983H61.8441V71.3636H62.2844V75H61.8441V73.3736H59.9052V75H59.4648Z" fill="black"/>
<path d="M64.2172 75.0568C63.9709 75.0568 63.7549 74.9982 63.5691 74.881C63.3844 74.7638 63.24 74.5999 63.1358 74.3892C63.0328 74.1785 62.9814 73.9323 62.9814 73.6506C62.9814 73.3665 63.0328 73.1185 63.1358 72.9066C63.24 72.6947 63.3844 72.5302 63.5691 72.413C63.7549 72.2958 63.9709 72.2372 64.2172 72.2372C64.4634 72.2372 64.6788 72.2958 64.8635 72.413C65.0493 72.5302 65.1937 72.6947 65.2967 72.9066C65.4009 73.1185 65.4529 73.3665 65.4529 73.6506C65.4529 73.9323 65.4009 74.1785 65.2967 74.3892C65.1937 74.5999 65.0493 74.7638 64.8635 74.881C64.6788 74.9982 64.4634 75.0568 64.2172 75.0568ZM64.2172 74.6804C64.4042 74.6804 64.5581 74.6325 64.6788 74.5366C64.7995 74.4407 64.8889 74.3146 64.9469 74.1584C65.0049 74.0021 65.0339 73.8329 65.0339 73.6506C65.0339 73.4683 65.0049 73.2984 64.9469 73.141C64.8889 72.9835 64.7995 72.8563 64.6788 72.7592C64.5581 72.6622 64.4042 72.6136 64.2172 72.6136C64.0301 72.6136 63.8762 72.6622 63.7555 72.7592C63.6348 72.8563 63.5454 72.9835 63.4874 73.141C63.4294 73.2984 63.4004 73.4683 63.4004 73.6506C63.4004 73.8329 63.4294 74.0021 63.4874 74.1584C63.5454 74.3146 63.6348 74.4407 63.7555 74.5366C63.8762 74.6325 64.0301 74.6804 64.2172 74.6804Z" fill="black"/>
<path d="M66.6177 75L65.7868 72.2727H66.2271L66.8166 74.3608H66.845L67.4274 72.2727H67.8748L68.4501 74.3537H68.4785L69.068 72.2727H69.5083L68.6774 75H68.2654L67.6689 72.9048H67.6262L67.0297 75H66.6177Z" fill="black"/>
<path d="M72.0865 75L71.2555 72.2727H71.6958L72.2853 74.3608H72.3137L72.8961 72.2727H73.3436L73.9189 74.3537H73.9473L74.5368 72.2727H74.9771L74.1461 75H73.7342L73.1376 72.9048H73.095L72.4984 75H72.0865Z" fill="black"/>
<path d="M76.3336 75.0639C76.1608 75.0639 76.004 75.0314 75.8631 74.9663C75.7222 74.9 75.6104 74.8047 75.5275 74.6804C75.4447 74.5549 75.4032 74.4034 75.4032 74.2259C75.4032 74.0696 75.434 73.9429 75.4956 73.8459C75.5571 73.7476 75.6394 73.6707 75.7424 73.6151C75.8453 73.5594 75.959 73.518 76.0833 73.4908C76.2087 73.4624 76.3348 73.4399 76.4615 73.4233C76.6272 73.402 76.7615 73.386 76.8645 73.3754C76.9687 73.3635 77.0444 73.344 77.0918 73.3168C77.1403 73.2895 77.1646 73.2422 77.1646 73.1747V73.1605C77.1646 72.9853 77.1167 72.8492 77.0208 72.7521C76.9261 72.6551 76.7823 72.6065 76.5893 72.6065C76.3893 72.6065 76.2324 72.6503 76.1188 72.7379C76.0051 72.8255 75.9252 72.919 75.8791 73.0185L75.4814 72.8764C75.5524 72.7107 75.6471 72.5817 75.7654 72.4893C75.885 72.3958 76.0152 72.3307 76.1561 72.294C76.2981 72.2562 76.4378 72.2372 76.5751 72.2372C76.6627 72.2372 76.7633 72.2479 76.877 72.2692C76.9918 72.2893 77.1024 72.3313 77.209 72.3952C77.3167 72.4592 77.4061 72.5556 77.4771 72.6847C77.5481 72.8137 77.5836 72.9865 77.5836 73.2031V75H77.1646V74.6307H77.1433C77.1149 74.6899 77.0675 74.7532 77.0012 74.8207C76.935 74.8881 76.8468 74.9455 76.7367 74.9929C76.6266 75.0402 76.4922 75.0639 76.3336 75.0639ZM76.3976 74.6875C76.5633 74.6875 76.7029 74.6549 76.8166 74.5898C76.9314 74.5247 77.0178 74.4407 77.0758 74.3377C77.135 74.2347 77.1646 74.1264 77.1646 74.0128V73.6293C77.1468 73.6506 77.1078 73.6701 77.0474 73.6879C76.9882 73.7044 76.9196 73.7192 76.8414 73.7322C76.7645 73.7441 76.6893 73.7547 76.6159 73.7642C76.5437 73.7725 76.4851 73.7796 76.4402 73.7855C76.3313 73.7997 76.2295 73.8228 76.1348 73.8548C76.0413 73.8855 75.9655 73.9323 75.9075 73.995C75.8507 74.0566 75.8223 74.1406 75.8223 74.2472C75.8223 74.3928 75.8761 74.5028 75.9838 74.5774C76.0927 74.6508 76.2306 74.6875 76.3976 74.6875Z" fill="black"/>
<path d="M80.2803 72.8835L79.9039 72.9901C79.8802 72.9273 79.8453 72.8664 79.7991 72.8072C79.7541 72.7468 79.6926 72.6971 79.6144 72.658C79.5363 72.619 79.4363 72.5994 79.3144 72.5994C79.1475 72.5994 79.0084 72.6379 78.8971 72.7148C78.787 72.7906 78.732 72.8871 78.732 73.0043C78.732 73.1084 78.7699 73.1907 78.8456 73.2511C78.9214 73.3114 79.0397 73.3617 79.2007 73.402L79.6056 73.5014C79.8494 73.5606 80.0311 73.6512 80.1507 73.7731C80.2702 73.8938 80.33 74.0495 80.33 74.2401C80.33 74.3963 80.285 74.536 80.195 74.6591C80.1063 74.7822 79.982 74.8793 79.8222 74.9503C79.6624 75.0213 79.4765 75.0568 79.2646 75.0568C78.9865 75.0568 78.7562 74.9964 78.574 74.8757C78.3917 74.755 78.2762 74.5786 78.2277 74.3466L78.6254 74.2472C78.6633 74.3939 78.7349 74.504 78.8403 74.5774C78.9468 74.6508 79.0859 74.6875 79.2575 74.6875C79.4529 74.6875 79.6079 74.6461 79.7227 74.5632C79.8387 74.4792 79.8968 74.3786 79.8968 74.2614C79.8968 74.1667 79.8636 74.0874 79.7973 74.0234C79.731 73.9583 79.6292 73.9098 79.4919 73.8778L79.0374 73.7713C78.7876 73.7121 78.6041 73.6204 78.4869 73.4961C78.3709 73.3706 78.3129 73.2138 78.3129 73.0256C78.3129 72.8717 78.3561 72.7356 78.4426 72.6172C78.5302 72.4988 78.6491 72.4059 78.7994 72.3384C78.951 72.271 79.1226 72.2372 79.3144 72.2372C79.5842 72.2372 79.7961 72.2964 79.95 72.4148C80.1051 72.5331 80.2152 72.6894 80.2803 72.8835Z" fill="black"/>
<path d="M82.6369 76.0227C82.5659 76.0227 82.5025 76.0168 82.4469 76.005C82.3913 75.9943 82.3528 75.9837 82.3315 75.973L82.438 75.6037C82.5398 75.6297 82.6298 75.6392 82.7079 75.6321C82.786 75.625 82.8553 75.5901 82.9157 75.5273C82.9772 75.4658 83.0334 75.3658 83.0843 75.2273L83.1625 75.0142L82.1539 72.2727H82.6085L83.3613 74.446H83.3897L84.1426 72.2727H84.5971L83.4395 75.3977C83.3874 75.5386 83.3229 75.6552 83.2459 75.7475C83.169 75.841 83.0796 75.9103 82.9778 75.9553C82.8772 76.0002 82.7636 76.0227 82.6369 76.0227Z" fill="black"/>
<path d="M86.1605 75.0568C85.9143 75.0568 85.6983 74.9982 85.5124 74.881C85.3278 74.7638 85.1834 74.5999 85.0792 74.3892C84.9762 74.1785 84.9247 73.9323 84.9247 73.6506C84.9247 73.3665 84.9762 73.1185 85.0792 72.9066C85.1834 72.6947 85.3278 72.5302 85.5124 72.413C85.6983 72.2958 85.9143 72.2372 86.1605 72.2372C86.4067 72.2372 86.6222 72.2958 86.8068 72.413C86.9927 72.5302 87.1371 72.6947 87.2401 72.9066C87.3442 73.1185 87.3963 73.3665 87.3963 73.6506C87.3963 73.9323 87.3442 74.1785 87.2401 74.3892C87.1371 74.5999 86.9927 74.7638 86.8068 74.881C86.6222 74.9982 86.4067 75.0568 86.1605 75.0568ZM86.1605 74.6804C86.3475 74.6804 86.5014 74.6325 86.6222 74.5366C86.7429 74.4407 86.8323 74.3146 86.8903 74.1584C86.9483 74.0021 86.9773 73.8329 86.9773 73.6506C86.9773 73.4683 86.9483 73.2984 86.8903 73.141C86.8323 72.9835 86.7429 72.8563 86.6222 72.7592C86.5014 72.6622 86.3475 72.6136 86.1605 72.6136C85.9735 72.6136 85.8196 72.6622 85.6989 72.7592C85.5781 72.8563 85.4888 72.9835 85.4308 73.141C85.3728 73.2984 85.3438 73.4683 85.3438 73.6506C85.3438 73.8329 85.3728 74.0021 85.4308 74.1584C85.4888 74.3146 85.5781 74.4407 85.6989 74.5366C85.8196 74.6325 85.9735 74.6804 86.1605 74.6804Z" fill="black"/>
<path d="M89.7547 73.8849V72.2727H90.1737V75H89.7547V74.5384H89.7263C89.6624 74.6768 89.5629 74.7946 89.428 74.8917C89.2931 74.9876 89.1226 75.0355 88.9166 75.0355C88.7462 75.0355 88.5947 74.9982 88.4621 74.9237C88.3295 74.8479 88.2253 74.7343 88.1496 74.5827C88.0738 74.43 88.036 74.2377 88.036 74.0057V72.2727H88.455V73.9773C88.455 74.1761 88.5106 74.3348 88.6219 74.4531C88.7343 74.5715 88.8776 74.6307 89.0516 74.6307C89.1557 74.6307 89.2617 74.604 89.3694 74.5508C89.4783 74.4975 89.5695 74.4158 89.6428 74.3058C89.7174 74.1957 89.7547 74.0554 89.7547 73.8849Z" fill="black"/>
<path d="M90.9412 75V72.2727H91.3461V72.6847H91.3745C91.4242 72.5497 91.5141 72.4402 91.6444 72.3562C91.7746 72.2721 91.9213 72.2301 92.0847 72.2301C92.1155 72.2301 92.1539 72.2307 92.2001 72.2319C92.2463 72.2331 92.2812 72.2348 92.3049 72.2372V72.6634C92.2907 72.6598 92.2581 72.6545 92.2072 72.6474C92.1575 72.6391 92.1048 72.6349 92.0492 72.6349C91.9166 72.6349 91.7982 72.6628 91.6941 72.7184C91.5911 72.7728 91.5094 72.8486 91.449 72.9457C91.3899 73.0415 91.3603 73.151 91.3603 73.2741V75H90.9412Z" fill="black"/>
<path d="M94.2078 75V72.2727H94.6127V72.6847H94.6411C94.6908 72.5497 94.7807 72.4402 94.911 72.3562C95.0412 72.2721 95.1879 72.2301 95.3513 72.2301C95.3821 72.2301 95.4205 72.2307 95.4667 72.2319C95.5129 72.2331 95.5478 72.2348 95.5715 72.2372V72.6634C95.5573 72.6598 95.5247 72.6545 95.4738 72.6474C95.4241 72.6391 95.3714 72.6349 95.3158 72.6349C95.1832 72.6349 95.0648 72.6628 94.9607 72.7184C94.8577 72.7728 94.776 72.8486 94.7156 72.9457C94.6565 73.0415 94.6269 73.151 94.6269 73.2741V75H94.2078Z" fill="black"/>
<path d="M97.1286 75.0568C96.8659 75.0568 96.6392 74.9988 96.4486 74.8828C96.2592 74.7656 96.113 74.6023 96.01 74.3928C95.9082 74.1821 95.8573 73.937 95.8573 73.6577C95.8573 73.3783 95.9082 73.1321 96.01 72.919C96.113 72.7048 96.2562 72.5379 96.4397 72.4183C96.6244 72.2976 96.8398 72.2372 97.086 72.2372C97.2281 72.2372 97.3683 72.2609 97.5068 72.3082C97.6453 72.3556 97.7714 72.4325 97.885 72.5391C97.9987 72.6444 98.0892 72.7841 98.1567 72.9581C98.2242 73.1321 98.2579 73.3464 98.2579 73.6009V73.7784H96.1556V73.4162H97.8318C97.8318 73.2623 97.801 73.125 97.7394 73.0043C97.6791 72.8835 97.5927 72.7882 97.4802 72.7184C97.3689 72.6486 97.2375 72.6136 97.086 72.6136C96.9191 72.6136 96.7747 72.6551 96.6528 72.7379C96.532 72.8196 96.4391 72.9261 96.374 73.0575C96.3089 73.1889 96.2764 73.3298 96.2764 73.4801V73.7216C96.2764 73.9276 96.3119 74.1022 96.3829 74.2454C96.4551 74.3874 96.5551 74.4957 96.683 74.5703C96.8108 74.6437 96.9594 74.6804 97.1286 74.6804C97.2387 74.6804 97.3382 74.665 97.4269 74.6342C97.5169 74.6023 97.5944 74.5549 97.6595 74.4922C97.7246 74.4283 97.7749 74.349 97.8105 74.2543L98.2153 74.3679C98.1727 74.5052 98.1011 74.6259 98.0004 74.7301C97.8998 74.8331 97.7755 74.9136 97.6276 74.9716C97.4796 75.0284 97.3133 75.0568 97.1286 75.0568Z" fill="black"/>
<path d="M100.003 75.0568C99.7476 75.0568 99.5274 74.9964 99.3428 74.8757C99.1581 74.755 99.0161 74.5887 98.9166 74.3768C98.8172 74.1649 98.7675 73.9228 98.7675 73.6506C98.7675 73.3736 98.8184 73.1291 98.9202 72.9173C99.0232 72.7042 99.1664 72.5379 99.3499 72.4183C99.5345 72.2976 99.75 72.2372 99.9962 72.2372C100.188 72.2372 100.361 72.2727 100.515 72.3438C100.669 72.4148 100.795 72.5142 100.893 72.642C100.991 72.7699 101.052 72.919 101.076 73.0895H100.657C100.625 72.9652 100.554 72.8551 100.444 72.7592C100.335 72.6622 100.188 72.6136 100.003 72.6136C99.8399 72.6136 99.6967 72.6562 99.5736 72.7415C99.4517 72.8255 99.3564 72.9445 99.2877 73.0984C99.2203 73.2511 99.1865 73.4304 99.1865 73.6364C99.1865 73.8471 99.2197 74.0305 99.286 74.1868C99.3534 74.343 99.4481 74.4644 99.57 74.5508C99.6932 74.6372 99.8376 74.6804 100.003 74.6804C100.112 74.6804 100.211 74.6615 100.3 74.6236C100.389 74.5857 100.464 74.5312 100.525 74.4602C100.587 74.3892 100.631 74.304 100.657 74.2045H101.076C101.052 74.3655 100.993 74.5105 100.9 74.6396C100.808 74.7674 100.685 74.8692 100.532 74.945C100.381 75.0195 100.205 75.0568 100.003 75.0568Z" fill="black"/>
<path d="M102.832 75.0568C102.569 75.0568 102.342 74.9988 102.152 74.8828C101.962 74.7656 101.816 74.6023 101.713 74.3928C101.611 74.1821 101.56 73.937 101.56 73.6577C101.56 73.3783 101.611 73.1321 101.713 72.919C101.816 72.7048 101.959 72.5379 102.143 72.4183C102.328 72.2976 102.543 72.2372 102.789 72.2372C102.931 72.2372 103.071 72.2609 103.21 72.3082C103.348 72.3556 103.475 72.4325 103.588 72.5391C103.702 72.6444 103.792 72.7841 103.86 72.9581C103.927 73.1321 103.961 73.3464 103.961 73.6009V73.7784H101.859V73.4162H103.535C103.535 73.2623 103.504 73.125 103.443 73.0043C103.382 72.8835 103.296 72.7882 103.183 72.7184C103.072 72.6486 102.941 72.6136 102.789 72.6136C102.622 72.6136 102.478 72.6551 102.356 72.7379C102.235 72.8196 102.142 72.9261 102.077 73.0575C102.012 73.1889 101.979 73.3298 101.979 73.4801V73.7216C101.979 73.9276 102.015 74.1022 102.086 74.2454C102.158 74.3874 102.258 74.4957 102.386 74.5703C102.514 74.6437 102.662 74.6804 102.832 74.6804C102.942 74.6804 103.041 74.665 103.13 74.6342C103.22 74.6023 103.298 74.5549 103.363 74.4922C103.428 74.4283 103.478 74.349 103.514 74.2543L103.918 74.3679C103.876 74.5052 103.804 74.6259 103.704 74.7301C103.603 74.8331 103.479 74.9136 103.331 74.9716C103.183 75.0284 103.016 75.0568 102.832 75.0568Z" fill="black"/>
<path d="M105.017 73.3594V75H104.598V72.2727H105.003V72.6989H105.039C105.103 72.5604 105.2 72.4491 105.33 72.3651C105.46 72.2798 105.628 72.2372 105.834 72.2372C106.019 72.2372 106.18 72.2751 106.319 72.3509C106.457 72.4254 106.565 72.5391 106.642 72.6918C106.719 72.8433 106.758 73.035 106.758 73.267V75H106.339V73.2955C106.339 73.0812 106.283 72.9143 106.172 72.7947C106.06 72.674 105.908 72.6136 105.714 72.6136C105.58 72.6136 105.46 72.6426 105.355 72.7006C105.251 72.7586 105.168 72.8433 105.108 72.9545C105.048 73.0658 105.017 73.2008 105.017 73.3594Z" fill="black"/>
<path d="M108.709 72.2727V72.6278H107.296V72.2727H108.709ZM107.708 71.6193H108.127V74.2188C108.127 74.3371 108.144 74.4259 108.178 74.4851C108.214 74.5431 108.259 74.5821 108.313 74.6023C108.369 74.6212 108.428 74.6307 108.489 74.6307C108.535 74.6307 108.573 74.6283 108.603 74.6236C108.632 74.6177 108.656 74.6129 108.674 74.6094L108.759 74.9858C108.731 74.9964 108.691 75.0071 108.64 75.0178C108.589 75.0296 108.525 75.0355 108.447 75.0355C108.328 75.0355 108.212 75.0101 108.099 74.9592C107.986 74.9083 107.893 74.8307 107.818 74.7266C107.745 74.6224 107.708 74.491 107.708 74.3324V71.6193Z" fill="black"/>
<path d="M111.889 75.0568C111.627 75.0568 111.4 74.9988 111.209 74.8828C111.02 74.7656 110.874 74.6023 110.771 74.3928C110.669 74.1821 110.618 73.937 110.618 73.6577C110.618 73.3783 110.669 73.1321 110.771 72.919C110.874 72.7048 111.017 72.5379 111.2 72.4183C111.385 72.2976 111.601 72.2372 111.847 72.2372C111.989 72.2372 112.129 72.2609 112.268 72.3082C112.406 72.3556 112.532 72.4325 112.646 72.5391C112.759 72.6444 112.85 72.7841 112.917 72.9581C112.985 73.1321 113.019 73.3464 113.019 73.6009V73.7784H110.916V73.4162H112.593C112.593 73.2623 112.562 73.125 112.5 73.0043C112.44 72.8835 112.353 72.7882 112.241 72.7184C112.13 72.6486 111.998 72.6136 111.847 72.6136C111.68 72.6136 111.535 72.6551 111.414 72.7379C111.293 72.8196 111.2 72.9261 111.135 73.0575C111.07 73.1889 111.037 73.3298 111.037 73.4801V73.7216C111.037 73.9276 111.073 74.1022 111.144 74.2454C111.216 74.3874 111.316 74.4957 111.444 74.5703C111.572 74.6437 111.72 74.6804 111.889 74.6804C111.999 74.6804 112.099 74.665 112.188 74.6342C112.278 74.6023 112.355 74.5549 112.42 74.4922C112.485 74.4283 112.536 74.349 112.571 74.2543L112.976 74.3679C112.933 74.5052 112.862 74.6259 112.761 74.7301C112.661 74.8331 112.536 74.9136 112.388 74.9716C112.24 75.0284 112.074 75.0568 111.889 75.0568Z" fill="black"/>
<path d="M113.895 72.2727L114.549 73.3878L115.202 72.2727H115.685L114.804 73.6364L115.685 75H115.202L114.549 73.9418L113.895 75H113.412L114.279 73.6364L113.412 72.2727H113.895Z" fill="black"/>
<path d="M116.283 76.0227V72.2727H116.688V72.706H116.738C116.768 72.6586 116.811 72.5982 116.865 72.5249C116.921 72.4503 117 72.384 117.103 72.326C117.208 72.2668 117.348 72.2372 117.526 72.2372C117.756 72.2372 117.958 72.2946 118.133 72.4094C118.308 72.5243 118.445 72.687 118.543 72.8977C118.642 73.1084 118.691 73.357 118.691 73.6435C118.691 73.9323 118.642 74.1826 118.543 74.3945C118.445 74.6052 118.309 74.7686 118.135 74.8846C117.961 74.9994 117.76 75.0568 117.533 75.0568C117.358 75.0568 117.218 75.0278 117.112 74.9698C117.007 74.9106 116.926 74.8438 116.869 74.7692C116.812 74.6934 116.768 74.6307 116.738 74.581H116.702V76.0227H116.283ZM116.695 73.6364C116.695 73.8423 116.725 74.024 116.786 74.1815C116.846 74.3377 116.934 74.4602 117.05 74.549C117.166 74.6366 117.308 74.6804 117.476 74.6804C117.651 74.6804 117.798 74.6342 117.915 74.5419C118.033 74.4484 118.122 74.3229 118.181 74.1655C118.241 74.0069 118.272 73.8305 118.272 73.6364C118.272 73.4446 118.242 73.2718 118.183 73.1179C118.125 72.9628 118.037 72.8403 117.918 72.7504C117.801 72.6592 117.654 72.6136 117.476 72.6136C117.306 72.6136 117.163 72.6568 117.047 72.7433C116.931 72.8285 116.843 72.948 116.784 73.1019C116.725 73.2546 116.695 73.4328 116.695 73.6364Z" fill="black"/>
<path d="M120.473 75.0568C120.211 75.0568 119.984 74.9988 119.793 74.8828C119.604 74.7656 119.458 74.6023 119.355 74.3928C119.253 74.1821 119.202 73.937 119.202 73.6577C119.202 73.3783 119.253 73.1321 119.355 72.919C119.458 72.7048 119.601 72.5379 119.784 72.4183C119.969 72.2976 120.185 72.2372 120.431 72.2372C120.573 72.2372 120.713 72.2609 120.852 72.3082C120.99 72.3556 121.116 72.4325 121.23 72.5391C121.343 72.6444 121.434 72.7841 121.501 72.9581C121.569 73.1321 121.603 73.3464 121.603 73.6009V73.7784H119.5V73.4162H121.176C121.176 73.2623 121.146 73.125 121.084 73.0043C121.024 72.8835 120.937 72.7882 120.825 72.7184C120.714 72.6486 120.582 72.6136 120.431 72.6136C120.264 72.6136 120.119 72.6551 119.998 72.7379C119.877 72.8196 119.784 72.9261 119.719 73.0575C119.654 73.1889 119.621 73.3298 119.621 73.4801V73.7216C119.621 73.9276 119.657 74.1022 119.728 74.2454C119.8 74.3874 119.9 74.4957 120.028 74.5703C120.156 74.6437 120.304 74.6804 120.473 74.6804C120.583 74.6804 120.683 74.665 120.772 74.6342C120.862 74.6023 120.939 74.5549 121.004 74.4922C121.069 74.4283 121.12 74.349 121.155 74.2543L121.56 74.3679C121.517 74.5052 121.446 74.6259 121.345 74.7301C121.245 74.8331 121.12 74.9136 120.972 74.9716C120.824 75.0284 120.658 75.0568 120.473 75.0568Z" fill="black"/>
<path d="M122.24 75V72.2727H122.645V72.6847H122.673C122.723 72.5497 122.813 72.4402 122.943 72.3562C123.073 72.2721 123.22 72.2301 123.384 72.2301C123.414 72.2301 123.453 72.2307 123.499 72.2319C123.545 72.2331 123.58 72.2348 123.604 72.2372V72.6634C123.589 72.6598 123.557 72.6545 123.506 72.6474C123.456 72.6391 123.404 72.6349 123.348 72.6349C123.215 72.6349 123.097 72.6628 122.993 72.7184C122.89 72.7728 122.808 72.8486 122.748 72.9457C122.689 73.0415 122.659 73.151 122.659 73.2741V75H122.24Z" fill="black"/>
<path d="M124.1 75V72.2727H124.519V75H124.1ZM124.313 71.8182C124.232 71.8182 124.161 71.7904 124.102 71.7347C124.044 71.6791 124.015 71.6122 124.015 71.5341C124.015 71.456 124.044 71.3891 124.102 71.3335C124.161 71.2778 124.232 71.25 124.313 71.25C124.395 71.25 124.465 71.2778 124.523 71.3335C124.582 71.3891 124.612 71.456 124.612 71.5341C124.612 71.6122 124.582 71.6791 124.523 71.7347C124.465 71.7904 124.395 71.8182 124.313 71.8182Z" fill="black"/>
<path d="M126.43 75.0568C126.168 75.0568 125.941 74.9988 125.75 74.8828C125.561 74.7656 125.415 74.6023 125.312 74.3928C125.21 74.1821 125.159 73.937 125.159 73.6577C125.159 73.3783 125.21 73.1321 125.312 72.919C125.415 72.7048 125.558 72.5379 125.741 72.4183C125.926 72.2976 126.142 72.2372 126.388 72.2372C126.53 72.2372 126.67 72.2609 126.809 72.3082C126.947 72.3556 127.073 72.4325 127.187 72.5391C127.3 72.6444 127.391 72.7841 127.458 72.9581C127.526 73.1321 127.56 73.3464 127.56 73.6009V73.7784H125.457V73.4162H127.134C127.134 73.2623 127.103 73.125 127.041 73.0043C126.981 72.8835 126.894 72.7882 126.782 72.7184C126.671 72.6486 126.539 72.6136 126.388 72.6136C126.221 72.6136 126.076 72.6551 125.955 72.7379C125.834 72.8196 125.741 72.9261 125.676 73.0575C125.611 73.1889 125.578 73.3298 125.578 73.4801V73.7216C125.578 73.9276 125.614 74.1022 125.685 74.2454C125.757 74.3874 125.857 74.4957 125.985 74.5703C126.113 74.6437 126.261 74.6804 126.43 74.6804C126.54 74.6804 126.64 74.665 126.729 74.6342C126.819 74.6023 126.896 74.5549 126.961 74.4922C127.026 74.4283 127.077 74.349 127.112 74.2543L127.517 74.3679C127.474 74.5052 127.403 74.6259 127.302 74.7301C127.202 74.8331 127.077 74.9136 126.929 74.9716C126.781 75.0284 126.615 75.0568 126.43 75.0568Z" fill="black"/>
<path d="M128.616 73.3594V75H128.197V72.2727H128.602V72.6989H128.637C128.701 72.5604 128.798 72.4491 128.929 72.3651C129.059 72.2798 129.227 72.2372 129.433 72.2372C129.618 72.2372 129.779 72.2751 129.918 72.3509C130.056 72.4254 130.164 72.5391 130.241 72.6918C130.318 72.8433 130.356 73.035 130.356 73.267V75H129.937V73.2955C129.937 73.0812 129.882 72.9143 129.77 72.7947C129.659 72.674 129.506 72.6136 129.312 72.6136C129.178 72.6136 129.059 72.6426 128.953 72.7006C128.849 72.7586 128.767 72.8433 128.707 72.9545C128.646 73.0658 128.616 73.2008 128.616 73.3594Z" fill="black"/>
<path d="M132.23 75.0568C131.974 75.0568 131.754 74.9964 131.569 74.8757C131.385 74.755 131.243 74.5887 131.143 74.3768C131.044 74.1649 130.994 73.9228 130.994 73.6506C130.994 73.3736 131.045 73.1291 131.147 72.9173C131.25 72.7042 131.393 72.5379 131.576 72.4183C131.761 72.2976 131.977 72.2372 132.223 72.2372C132.415 72.2372 132.587 72.2727 132.741 72.3438C132.895 72.4148 133.021 72.5142 133.119 72.642C133.218 72.7699 133.279 72.919 133.302 73.0895H132.883C132.851 72.9652 132.78 72.8551 132.67 72.7592C132.561 72.6622 132.415 72.6136 132.23 72.6136C132.066 72.6136 131.923 72.6562 131.8 72.7415C131.678 72.8255 131.583 72.9445 131.514 73.0984C131.447 73.2511 131.413 73.4304 131.413 73.6364C131.413 73.8471 131.446 74.0305 131.513 74.1868C131.58 74.343 131.675 74.4644 131.797 74.5508C131.92 74.6372 132.064 74.6804 132.23 74.6804C132.339 74.6804 132.438 74.6615 132.526 74.6236C132.615 74.5857 132.69 74.5312 132.752 74.4602C132.813 74.3892 132.857 74.304 132.883 74.2045H133.302C133.279 74.3655 133.22 74.5105 133.127 74.6396C133.034 74.7674 132.912 74.8692 132.759 74.945C132.607 75.0195 132.431 75.0568 132.23 75.0568Z" fill="black"/>
<path d="M135.058 75.0568C134.796 75.0568 134.569 74.9988 134.378 74.8828C134.189 74.7656 134.043 74.6023 133.94 74.3928C133.838 74.1821 133.787 73.937 133.787 73.6577C133.787 73.3783 133.838 73.1321 133.94 72.919C134.043 72.7048 134.186 72.5379 134.369 72.4183C134.554 72.2976 134.77 72.2372 135.016 72.2372C135.158 72.2372 135.298 72.2609 135.437 72.3082C135.575 72.3556 135.701 72.4325 135.815 72.5391C135.928 72.6444 136.019 72.7841 136.086 72.9581C136.154 73.1321 136.188 73.3464 136.188 73.6009V73.7784H134.085V73.4162H135.761C135.761 73.2623 135.731 73.125 135.669 73.0043C135.609 72.8835 135.522 72.7882 135.41 72.7184C135.299 72.6486 135.167 72.6136 135.016 72.6136C134.849 72.6136 134.704 72.6551 134.582 72.7379C134.462 72.8196 134.369 72.9261 134.304 73.0575C134.239 73.1889 134.206 73.3298 134.206 73.4801V73.7216C134.206 73.9276 134.242 74.1022 134.313 74.2454C134.385 74.3874 134.485 74.4957 134.613 74.5703C134.741 74.6437 134.889 74.6804 135.058 74.6804C135.168 74.6804 135.268 74.665 135.357 74.6342C135.447 74.6023 135.524 74.5549 135.589 74.4922C135.654 74.4283 135.705 74.349 135.74 74.2543L136.145 74.3679C136.102 74.5052 136.031 74.6259 135.93 74.7301C135.83 74.8331 135.705 74.9136 135.557 74.9716C135.409 75.0284 135.243 75.0568 135.058 75.0568Z" fill="black"/>
<path d="M137.372 73.9773V73.956C137.374 73.7299 137.398 73.55 137.443 73.4162C137.488 73.2824 137.552 73.1741 137.635 73.0913C137.718 73.0084 137.817 72.9321 137.933 72.8622C138.003 72.8196 138.066 72.7693 138.121 72.7113C138.177 72.6521 138.221 72.584 138.253 72.5071C138.286 72.4302 138.302 72.3449 138.302 72.2514C138.302 72.1354 138.275 72.0348 138.221 71.9496C138.166 71.8643 138.093 71.7987 138.002 71.7525C137.911 71.7063 137.81 71.6832 137.699 71.6832C137.602 71.6832 137.508 71.7034 137.418 71.7436C137.328 71.7839 137.253 71.8472 137.193 71.9336C137.132 72.02 137.097 72.133 137.088 72.2727H136.64C136.65 72.0715 136.702 71.8993 136.797 71.756C136.892 71.6128 137.019 71.5033 137.175 71.4276C137.332 71.3518 137.507 71.3139 137.699 71.3139C137.907 71.3139 138.088 71.3554 138.242 71.4382C138.397 71.5211 138.517 71.6347 138.601 71.7791C138.686 71.9235 138.728 72.0881 138.728 72.2727C138.728 72.4029 138.708 72.5207 138.668 72.6261C138.629 72.7314 138.572 72.8255 138.498 72.9084C138.424 72.9912 138.335 73.0646 138.231 73.1286C138.127 73.1937 138.044 73.2623 137.981 73.3345C137.918 73.4055 137.873 73.4902 137.844 73.5884C137.816 73.6867 137.8 73.8092 137.798 73.956V73.9773H137.372ZM137.599 75.0284C137.512 75.0284 137.436 74.997 137.374 74.9343C137.311 74.8716 137.28 74.7964 137.28 74.7088C137.28 74.6212 137.311 74.546 137.374 74.4833C137.436 74.4206 137.512 74.3892 137.599 74.3892C137.687 74.3892 137.762 74.4206 137.825 74.4833C137.887 74.546 137.919 74.6212 137.919 74.7088C137.919 74.7668 137.904 74.8201 137.874 74.8686C137.846 74.9171 137.807 74.9562 137.759 74.9858C137.712 75.0142 137.658 75.0284 137.599 75.0284Z" fill="black"/>
<g style="mix-blend-mode:soft-light" opacity="0.75">
<path d="M107.559 55.8026C105.038 55.7557 102.517 55.7104 99.9939 55.6708C90.448 79.86 80.6733 104.208 70.8882 128.564C73.2695 128.59 75.6504 128.613 78.0317 128.634C88.1839 104.506 97.8819 80.1591 107.559 55.8026Z" fill="white"/>
</g>
<g style="mix-blend-mode:soft-light" opacity="0.75">
<path d="M25.2808 104.424C25.6789 108.614 26.1952 112.829 26.8256 117.085C34.8607 96.5434 42.8962 75.9864 50.9334 55.3571C48.6801 55.3635 46.4268 55.37 44.1718 55.3825C38.0948 71.8129 31.7451 88.1424 25.2808 104.424Z" fill="white"/>
</g>
<g style="mix-blend-mode:soft-light" opacity="0.75">
<path d="M47.875 128.251C53.5559 128.348 59.2368 128.432 64.9182 128.503C74.8847 104.201 84.8516 79.8979 94.8176 55.5954C89.3341 55.5195 83.8467 55.4618 78.3549 55.4204C68.1338 79.4412 57.9221 103.498 47.875 128.251Z" fill="white"/>
</g>
<g style="mix-blend-mode:soft-light" opacity="0.75">
<path d="M170.21 57.7091C167.978 57.6151 165.745 57.5246 163.512 57.4363C154.716 81.3571 145.316 105.055 135.822 128.701C138.049 128.686 140.275 128.669 142.502 128.65C151.737 105.042 160.972 81.4264 170.21 57.7095V57.7091Z" fill="white"/>
</g>
<g style="mix-blend-mode:soft-light" opacity="0.75">
<path d="M119.613 128.779C128.899 104.802 138.185 80.8235 147.47 56.8463C139.454 56.5761 131.433 56.3434 123.406 56.1456C114.46 80.5081 104.755 104.601 94.7593 128.744C103.044 128.781 111.328 128.798 119.613 128.779Z" fill="white"/>
</g>
<path d="M175.785 128.223C179.615 105.052 180.133 81.332 177.317 58.015C126.928 55.7595 76.4386 54.9033 25.4612 55.5535C23.1549 80.1578 23.8875 103.05 28.6527 127.876C77.6879 128.965 126.745 129.084 175.785 128.223H175.785Z" stroke="#011635" stroke-width="0.517113" stroke-linecap="round" stroke-linejoin="round"/>
<path d="M15.7832 128.872C20.4605 122.504 25.71 116.556 31.4491 111.125C32.1339 110.477 32.8453 109.823 33.7158 109.463C34.5867 109.103 35.661 109.088 36.4052 109.667C37.773 110.73 37.2671 112.882 36.5879 114.476C34.8927 118.456 32.9156 122.316 30.5218 126.456C33.8167 134.802 33.5314 144.494 29.7521 152.631" fill="#E8614E"/>
<path d="M15.7832 128.872C20.4605 122.504 25.71 116.556 31.4491 111.125C32.1339 110.477 32.8453 109.823 33.7158 109.463C34.5867 109.103 35.661 109.088 36.4052 109.667C37.773 110.73 37.2671 112.882 36.5879 114.476C34.8927 118.456 32.9156 122.316 30.5218 126.456C33.8167 134.802 33.5314 144.494 29.7521 152.631" stroke="#011635" stroke-width="0.517113" stroke-linecap="round" stroke-linejoin="round"/>
<path d="M31.9565 111.755C31.9565 111.755 34.2581 113.63 35.5082 110.249" stroke="#011635" stroke-width="0.517113" stroke-linecap="round" stroke-linejoin="round"/>
<path d="M120.781 149.695C123.467 161.818 124.248 185.266 122.121 200H158.091C158.155 182.388 155.227 154.925 152.236 138.105C151.365 133.206 150.293 128.164 147.395 124.119C144.533 120.124 140.108 117.464 135.457 115.877C130.806 114.29 125.886 113.683 121.008 113.084L113.372 115.337C111.086 118.566 109.036 121.963 107.051 126.032C106.025 128.136 105.952 130.582 106.816 132.759C109.807 140.293 114.25 143.481 120.781 149.695Z" fill="#E8614E"/>
<path d="M107.851 124.438C109.045 126.289 110.934 128.659 113.654 130.563L115.235 114.994L114.793 114.918L113.372 115.337C111.391 118.135 109.588 121.06 107.851 124.438Z" fill="#C74F3E"/>
<path d="M113.654 130.563C111.925 121.59 111.178 107.224 110.587 97.8237C110.499 96.4176 110.422 94.9485 110.989 93.6592C111.557 92.3694 112.991 91.3438 114.346 91.7291C115.748 92.1277 116.382 93.7187 116.792 95.1179C118.485 100.888 119.698 106.8 121.007 113.085" fill="#E8614E"/>
<path d="M113.654 130.563C111.925 121.59 111.178 107.224 110.587 97.8237C110.499 96.4176 110.422 94.9485 110.989 93.6592C111.557 92.3694 112.991 91.3438 114.346 91.7291C115.748 92.1277 116.382 93.7187 116.792 95.1179C118.485 100.888 120.061 108.495 121.37 114.779" stroke="#011635" stroke-width="0.517113" stroke-linecap="round" stroke-linejoin="round"/>
<path d="M111.938 94.05C111.938 94.05 112.15 97.463 115.767 95.9853" stroke="#011635" stroke-width="0.517113" stroke-linecap="round" stroke-linejoin="round"/>
<g filter="url(#filter1_d_27_9)">
<path d="M124.964 15.7212C124.85 13.2964 123.403 11.3443 121.515 11.0508C112.478 9.64514 103.502 9.66669 94.6496 11.0138C92.6199 11.3227 91.0647 13.5282 91.0199 16.1284C90.9096 22.5747 90.7622 29.2868 90.9113 36.329C90.9665 38.9314 92.5553 41.0167 94.5901 41.1942C96.4638 41.3584 98.3409 41.4778 100.219 41.5687C100.266 43.2902 100.342 45.0394 100.663 47.0238C102.46 45.4608 104.064 43.6772 105.431 41.7273C110.631 41.7915 115.837 41.5838 121.033 41.0895C123.065 40.896 124.719 38.8211 124.863 36.2303C125.236 29.5415 125.29 22.6264 124.965 15.7212H124.964Z" fill="white"/>
<path d="M102.488 25.1818C104.064 27.1244 105.64 29.0679 107.88 30.9252C109.98 28.0233 111.932 25.0159 113.729 21.918" stroke="#32E69E" stroke-width="2.58556" stroke-linecap="round" stroke-linejoin="round"/>
<path d="M124.964 15.7212C124.85 13.2964 123.403 11.3443 121.515 11.0508C112.478 9.64514 103.502 9.66669 94.6496 11.0138C92.6199 11.3227 91.0647 13.5282 91.0199 16.1284C90.9096 22.5747 90.7622 29.2868 90.9113 36.329C90.9665 38.9314 92.5553 41.0167 94.5901 41.1942C96.4638 41.3584 98.3409 41.4777 100.219 41.5687C100.266 43.2902 100.342 45.0394 100.663 47.0238C102.46 45.4608 104.064 43.6772 105.431 41.7273C110.631 41.7915 115.837 41.5838 121.033 41.0895C123.065 40.896 124.719 38.8211 124.863 36.2303C125.236 29.5415 125.29 22.6264 124.965 15.7212H124.964Z" stroke="#011635" stroke-width="0.517113" stroke-linecap="round" stroke-linejoin="round"/>
</g>
<g filter="url(#filter2_d_27_9)">
<path d="M36.4293 68.8972C36.2677 67.0115 34.7931 65.4959 32.9138 65.2718C23.9182 64.1992 15.0122 64.2363 6.25533 65.3037C4.24764 65.5489 2.74801 67.2683 2.75491 69.2906C2.77344 74.3058 2.76008 79.5282 3.04794 85.0066C3.15438 87.0311 4.77208 88.6496 6.79528 88.7836C8.36084 88.8875 9.92812 88.9638 11.4963 89.0271C11.4963 90.4936 11.4941 91.9854 11.4829 93.6342C13.2346 92.353 14.8196 90.8448 16.1891 89.1607C21.8071 89.2443 27.429 89.0736 33.0314 88.6419C35.0434 88.4872 36.6439 86.8686 36.7357 84.8531C36.9727 79.648 36.8891 74.2691 36.4293 68.8972Z" fill="white"/>
<path d="M10.6826 71.2539C17.2254 71.2466 23.7673 71.2388 30.3096 71.2311" stroke="#011635" stroke-width="0.517113" stroke-linecap="round" stroke-linejoin="round"/>
<path d="M10.2739 77.7191C16.7232 77.729 23.1716 77.7394 29.6208 77.7497" stroke="#011635" stroke-width="0.517113" stroke-linecap="round" stroke-linejoin="round"/>
<path d="M10.0083 83.3798C12.2409 83.3143 14.4731 83.2488 16.7062 83.1824" stroke="#011635" stroke-width="0.517113" stroke-linecap="round" stroke-linejoin="round"/>
<path d="M36.4293 68.8972C36.2677 67.0115 34.7931 65.4959 32.9138 65.2718C23.9182 64.1992 15.0122 64.2363 6.25533 65.3037C4.24764 65.5489 2.74801 67.2683 2.75491 69.2906C2.77344 74.3058 2.76008 79.5282 3.04794 85.0066C3.15438 87.0311 4.77208 88.6496 6.79528 88.7836C8.36084 88.8875 9.92813 88.9638 11.4963 89.0271C11.4963 90.4936 11.4941 91.9854 11.4829 93.6342C13.2346 92.353 14.8196 90.8448 16.1891 89.1607C21.8071 89.2443 27.429 89.0736 33.0314 88.6419C35.0434 88.4872 36.6439 86.8686 36.7357 84.8531C36.9727 79.648 36.8891 74.2691 36.4293 68.8972Z" stroke="#011635" stroke-width="0.517113" stroke-linecap="round" stroke-linejoin="round"/>
</g>
<g filter="url(#filter3_d_27_9)">
<path d="M191.22 107.504C191.115 105.307 189.686 103.521 187.814 103.233C178.849 101.847 169.941 101.755 161.151 102.863C159.136 103.117 157.585 105.094 157.531 107.448C157.399 113.283 157.229 119.358 157.351 125.736C157.397 128.092 158.967 130.001 160.985 130.187C162.879 130.362 164.775 130.497 166.673 130.603C166.678 132.232 166.709 133.997 166.87 136.421C168.636 134.697 170.256 132.823 171.675 130.804C176.857 130.93 182.047 130.807 187.228 130.423C189.244 130.273 190.894 128.415 191.047 126.072C191.44 120.02 191.518 113.76 191.22 107.504Z" fill="white"/>
<path d="M191.22 107.504C191.115 105.307 189.686 103.521 187.814 103.233C178.849 101.847 169.941 101.755 161.151 102.863C159.136 103.117 157.585 105.094 157.531 107.448C157.399 113.283 157.229 119.358 157.351 125.736C157.397 128.092 158.967 130.001 160.985 130.187C162.879 130.362 164.775 130.497 166.673 130.603C166.678 132.232 166.709 133.997 166.87 136.421C168.636 134.697 170.256 132.823 171.675 130.804C176.857 130.93 182.047 130.807 187.228 130.423C189.244 130.273 190.894 128.415 191.047 126.072C191.44 120.02 191.518 113.76 191.22 107.504Z" stroke="#011635" stroke-width="0.517113" stroke-linecap="round" stroke-linejoin="round"/>
<path d="M174.356 118.152L172.318 119.224L172.707 116.954L171.059 115.347L173.337 115.016L174.356 112.952L175.374 115.016L177.653 115.347L176.004 116.954L176.393 119.224L174.356 118.152Z" fill="#EBBE4D"/>
<path d="M174.356 118.365L172.318 119.436L172.707 117.167L171.059 115.56L173.337 115.229L174.356 113.164L175.374 115.229L177.653 115.56L176.004 117.167L176.393 119.436L174.356 118.365Z" stroke="#011635" stroke-width="0.517113" stroke-linecap="round" stroke-linejoin="round"/>
<path d="M164.948 118.152L162.91 119.224L163.299 116.954L161.65 115.347L163.929 115.016L164.948 112.952L165.967 115.016L168.245 115.347L166.596 116.954L166.985 119.224L164.948 118.152Z" fill="#EBBE4D"/>
<path d="M164.948 118.365L162.91 119.436L163.299 117.167L161.65 115.56L163.929 115.229L164.948 113.164L165.967 115.229L168.245 115.56L166.596 117.167L166.985 119.436L164.948 118.365Z" stroke="#011635" stroke-width="0.517113" stroke-linecap="round" stroke-linejoin="round"/>
<path d="M183.762 118.152L181.725 119.224L182.114 116.954L180.465 115.347L182.744 115.016L183.762 112.952L184.781 115.016L187.06 115.347L185.411 116.954L185.8 119.224L183.762 118.152Z" fill="#EBBE4D"/>
<path d="M183.762 118.152L181.725 119.224L182.114 116.954L180.465 115.347L182.744 115.016L183.762 112.952L184.781 115.016L187.06 115.347L185.411 116.954L185.8 119.224L183.762 118.152Z" stroke="#011635" stroke-width="0.517113" stroke-linecap="round" stroke-linejoin="round"/>
</g>
</g>
</g>
<defs>
<filter id="filter0_d_27_9" x="49.6963" y="84.6767" width="105.291" height="25.4587" filterUnits="userSpaceOnUse" color-interpolation-filters="sRGB">
<feFlood flood-opacity="0" result="BackgroundImageFix"/>
<feColorMatrix in="SourceAlpha" type="matrix" values="0 0 0 0 0 0 0 0 0 0 0 0 0 0 0 0 0 0 127 0" result="hardAlpha"/>
<feOffset dx="1.29278" dy="1.29278"/>
<feColorMatrix type="matrix" values="0 0 0 0 0.00392157 0 0 0 0 0.0862745 0 0 0 0 0.207843 0 0 0 0.12 0"/>
<feBlend mode="normal" in2="BackgroundImageFix" result="effect1_dropShadow_27_9"/>
<feBlend mode="normal" in="SourceGraphic" in2="effect1_dropShadow_27_9" result="shape"/>
</filter>
<filter id="filter1_d_27_9" x="90.5894" y="9.74146" width="37.0033" height="39.6955" filterUnits="userSpaceOnUse" color-interpolation-filters="sRGB">
<feFlood flood-opacity="0" result="BackgroundImageFix"/>
<feColorMatrix in="SourceAlpha" type="matrix" values="0 0 0 0 0 0 0 0 0 0 0 0 0 0 0 0 0 0 127 0" result="hardAlpha"/>
<feOffset dx="2.15464" dy="2.15464"/>
<feColorMatrix type="matrix" values="0 0 0 0 0.00392157 0 0 0 0 0.0862745 0 0 0 0 0.207843 0 0 0 0.12 0"/>
<feBlend mode="normal" in2="BackgroundImageFix" result="effect1_dropShadow_27_9"/>
<feBlend mode="normal" in="SourceGraphic" in2="effect1_dropShadow_27_9" result="shape"/>
</filter>
<filter id="filter2_d_27_9" x="2.49609" y="64.2265" width="36.7816" height="31.8208" filterUnits="userSpaceOnUse" color-interpolation-filters="sRGB">
<feFlood flood-opacity="0" result="BackgroundImageFix"/>
<feColorMatrix in="SourceAlpha" type="matrix" values="0 0 0 0 0 0 0 0 0 0 0 0 0 0 0 0 0 0 127 0" result="hardAlpha"/>
<feOffset dx="2.15464" dy="2.15464"/>
<feColorMatrix type="matrix" values="0 0 0 0 0.00392157 0 0 0 0 0.0862745 0 0 0 0 0.207843 0 0 0 0.12 0"/>
<feBlend mode="normal" in2="BackgroundImageFix" result="effect1_dropShadow_27_9"/>
<feBlend mode="normal" in="SourceGraphic" in2="effect1_dropShadow_27_9" result="shape"/>
</filter>
<filter id="filter3_d_27_9" x="157.05" y="101.846" width="36.764" height="36.9886" filterUnits="userSpaceOnUse" color-interpolation-filters="sRGB">
<feFlood flood-opacity="0" result="BackgroundImageFix"/>
<feColorMatrix in="SourceAlpha" type="matrix" values="0 0 0 0 0 0 0 0 0 0 0 0 0 0 0 0 0 0 127 0" result="hardAlpha"/>
<feOffset dx="2.15464" dy="2.15464"/>
<feColorMatrix type="matrix" values="0 0 0 0 0.00392157 0 0 0 0 0.0862745 0 0 0 0 0.207843 0 0 0 0.12 0"/>
<feBlend mode="normal" in2="BackgroundImageFix" result="effect1_dropShadow_27_9"/>
<feBlend mode="normal" in="SourceGraphic" in2="effect1_dropShadow_27_9" result="shape"/>
</filter>
<linearGradient id="paint0_linear_27_9" x1="463" y1="-14.9871" x2="1227.24" y2="194.888" gradientUnits="userSpaceOnUse">
<stop stop-color="#6E55FF"/>
<stop offset="1" stop-color="#845DE2"/>
</linearGradient>
<linearGradient id="paint1_linear_27_9" x1="-18" y1="90.5001" x2="1210" y2="90.5001" gradientUnits="userSpaceOnUse">
<stop stop-color="#6C0C0C" stop-opacity="0"/>
<stop offset="1" stop-color="#E37F7F"/>
</linearGradient>
<clipPath id="clip0_27_9">
<rect width="62" height="9.28144" fill="white" transform="translate(207 145)"/>
</clipPath>
</defs>
</svg>
