<?xml version="1.0"?>
<svg xmlns="http://www.w3.org/2000/svg" xmlns:xlink="http://www.w3.org/1999/xlink" version="1.1" id="Capa_1" x="0px" y="0px" viewBox="0 0 512 512" style="enable-background:new 0 0 512 512;" xml:space="preserve" width="512px" height="512px" class=""><g><g>
	<g>
		<path d="M501.333,85.333H10.667C4.779,85.333,0,90.112,0,96s4.779,10.667,10.667,10.667h490.667    c5.888,0,10.667-4.779,10.667-10.667S507.221,85.333,501.333,85.333z" data-original="#000000" class="active-path" data-old_color="#000000" fill="#D3D3D3"/>
	</g>
</g><g>
	<g>
		<path d="M394.667,149.333H117.333c-5.888,0-10.667,4.779-10.667,10.667s4.779,10.667,10.667,10.667h277.333    c5.888,0,10.667-4.779,10.667-10.667S400.555,149.333,394.667,149.333z" data-original="#000000" class="active-path" data-old_color="#000000" fill="#D3D3D3"/>
	</g>
</g><g>
	<g>
		<path d="M501.333,213.333H10.667C4.779,213.333,0,218.112,0,224s4.779,10.667,10.667,10.667h490.667    c5.888,0,10.667-4.779,10.667-10.667S507.221,213.333,501.333,213.333z" data-original="#000000" class="active-path" data-old_color="#000000" fill="#D3D3D3"/>
	</g>
</g><g>
	<g>
		<path d="M394.667,277.333H117.333c-5.888,0-10.667,4.779-10.667,10.667s4.779,10.667,10.667,10.667h277.333    c5.888,0,10.667-4.779,10.667-10.667S400.555,277.333,394.667,277.333z" data-original="#000000" class="active-path" data-old_color="#000000" fill="#D3D3D3"/>
	</g>
</g><g>
	<g>
		<path d="M501.333,341.333H10.667C4.779,341.333,0,346.112,0,352c0,5.888,4.779,10.667,10.667,10.667h490.667    c5.888,0,10.667-4.779,10.667-10.667C512,346.112,507.221,341.333,501.333,341.333z" data-original="#000000" class="active-path" data-old_color="#000000" fill="#D3D3D3"/>
	</g>
</g><g>
	<g>
		<path d="M394.667,405.333H117.333c-5.888,0-10.667,4.779-10.667,10.667c0,5.888,4.779,10.667,10.667,10.667h277.333    c5.888,0,10.667-4.779,10.667-10.667C405.333,410.112,400.555,405.333,394.667,405.333z" data-original="#000000" class="active-path" data-old_color="#000000" fill="#D3D3D3"/>
	</g>
</g></g> </svg>
