<?xml version="1.0"?>
<svg xmlns="http://www.w3.org/2000/svg" xmlns:xlink="http://www.w3.org/1999/xlink" version="1.1" id="Layer_1" x="0px" y="0px" viewBox="0 0 512 512" style="enable-background:new 0 0 512 512;" xml:space="preserve" width="512px" height="512px"><g><g>
	<g>
		<path d="M405.333,0h-12.625c-4.51,0-8.542,2.844-10.052,7.094c-3.021,8.521-11.063,14.24-19.99,14.24s-16.969-5.719-19.99-14.24    C341.167,2.844,337.135,0,332.625,0h-46.583c-4.51,0-8.542,2.844-10.052,7.094c-3.021,8.521-11.063,14.24-19.99,14.24    s-16.969-5.719-19.99-14.24C234.5,2.844,230.469,0,225.958,0h-46.583c-4.51,0-8.542,2.844-10.052,7.094    c-3.021,8.521-11.063,14.24-19.99,14.24c-8.927,0-16.969-5.719-19.99-14.24C127.833,2.844,123.802,0,119.292,0h-12.625    C83.135,0,64,19.135,64,42.667v426.667C64,492.865,83.135,512,106.667,512h12.625c4.51,0,8.542-2.844,10.052-7.094    c3.021-8.521,11.063-14.24,19.99-14.24c8.927,0,16.969,5.719,19.99,14.24c1.51,4.25,5.542,7.094,10.052,7.094h46.583    c4.51,0,8.542-2.844,10.052-7.094c3.021-8.521,11.063-14.24,19.99-14.24s16.969,5.719,19.99,14.24    c1.51,4.25,5.542,7.094,10.052,7.094h46.583c4.51,0,8.542-2.844,10.052-7.094c3.021-8.521,11.063-14.24,19.99-14.24    s16.969,5.719,19.99,14.24c1.51,4.25,5.542,7.094,10.052,7.094h12.625C428.865,512,448,492.865,448,469.333V42.667    C448,19.135,428.865,0,405.333,0z M266.667,384h-128c-5.896,0-10.667-4.771-10.667-10.667c0-5.896,4.771-10.667,10.667-10.667h128    c5.896,0,10.667,4.771,10.667,10.667C277.333,379.229,272.563,384,266.667,384z M266.667,320h-128    c-5.896,0-10.667-4.771-10.667-10.667c0-5.896,4.771-10.667,10.667-10.667h128c5.896,0,10.667,4.771,10.667,10.667    C277.333,315.229,272.563,320,266.667,320z M352,341.333c17.646,0,32,14.354,32,32c0,13.888-8.944,25.617-21.333,30.035v1.965    c0,5.896-4.771,10.667-10.667,10.667c-5.896,0-10.667-4.771-10.667-10.667h-10.667c-5.896,0-10.667-4.771-10.667-10.667    S324.771,384,330.667,384H352c5.885,0,10.667-4.781,10.667-10.667c0-5.885-4.781-10.667-10.667-10.667c-17.646,0-32-14.354-32-32    c0-13.888,8.944-25.617,21.333-30.035v-1.965c0-5.896,4.771-10.667,10.667-10.667c5.896,0,10.667,4.771,10.667,10.667h10.667    c5.896,0,10.667,4.771,10.667,10.667c0,5.896-4.771,10.667-10.667,10.667H352c-5.885,0-10.667,4.781-10.667,10.667    C341.333,336.552,346.115,341.333,352,341.333z M373.333,256H138.667c-5.896,0-10.667-4.771-10.667-10.667    c0-5.896,4.771-10.667,10.667-10.667h234.667c5.896,0,10.667,4.771,10.667,10.667C384,251.229,379.229,256,373.333,256z     M373.333,192H138.667c-5.896,0-10.667-4.771-10.667-10.667c0-5.896,4.771-10.667,10.667-10.667h234.667    c5.896,0,10.667,4.771,10.667,10.667C384,187.229,379.229,192,373.333,192z M373.333,128H138.667    c-5.896,0-10.667-4.771-10.667-10.667c0-5.896,4.771-10.667,10.667-10.667h234.667c5.896,0,10.667,4.771,10.667,10.667    C384,123.229,379.229,128,373.333,128z" data-original="#000000" class="active-path" data-old_color="#000000" fill="#1E2E8A"/>
	</g>
</g></g> </svg>
