<?xml version="1.0"?>
<svg xmlns="http://www.w3.org/2000/svg" xmlns:xlink="http://www.w3.org/1999/xlink" version="1.1" id="Layer_1" x="0px" y="0px" viewBox="0 0 512 512" style="enable-background:new 0 0 512 512;" xml:space="preserve" width="512px" height="512px" class=""><g><g>
	<g>
		<path d="M512,183.778V50.213c0-27.618-22.469-50.087-50.087-50.087H50.087C22.469,0.126,0,22.595,0,50.213v133.565    c0,27.618,22.469,50.087,50.087,50.087h134.9l80.628,241.883c5.054,15.161,26.613,15.195,31.678,0l26.874-80.622L431.15,502.11    c13.019,13.018,34.203,13.018,47.223,0l23.612-23.611c13.017-13.019,13.017-34.203-0.001-47.222L395.001,324.293l80.622-26.874    c15.169-5.058,15.186-26.615,0-31.678L380,233.867h81.913C489.531,233.865,512,211.396,512,183.778z M417.546,281.579    l-58.733,19.577c-11.77,3.923-15.284,18.886-6.526,27.645l126.084,126.086l-23.612,23.611L328.675,352.412    c-8.777-8.779-23.724-5.23-27.645,6.526l-19.577,58.733l-68.047-204.139C217.508,214.9,402.306,276.499,417.546,281.579z     M279.825,200.475v-0.001l-87.536-29.178c-13.016-4.343-25.465,8.081-21.119,21.119l2.687,8.061H50.087    c-9.206,0-16.696-7.49-16.696-16.696V50.214c0-9.206,7.49-16.696,16.696-16.696h411.826c9.206,0,16.696,7.49,16.696,16.696V183.78    c0,9.206-7.49,16.696-16.696,16.696H279.825z" data-original="#000000" class="active-path" data-old_color="#000000" fill="#1E2E8A"/>
	</g>
</g></g> </svg>
