<?xml version="1.0"?>
<svg xmlns="http://www.w3.org/2000/svg" height="512px" viewBox="-25 0 412 412" width="512px"><g><path d="m37.789062 412h195.285157c20.953125 0 37.925781-17.5 37.925781-38.449219v-27.550781h53.214844c10.03125.019531 19.660156-3.960938 26.753906-11.058594 7.089844-7.097656 11.0625-16.730468 11.03125-26.765625v-220.515625c.039062-2.195312-.835938-4.308594-2.421875-5.835937l-84.40625-79.433594c-1.4375-1.453125-3.375-2.3046875-5.417969-2.390625h-140.828125c-20.953125 0-37.925781 17.5-37.925781 38.449219v27.550781h-53.210938c-10.035156-.019531-19.664062 3.960938-26.757812 11.058594-7.089844 7.097656-11.0625 16.730468-11.03125 26.765625v269.726562c0 20.949219 16.835938 38.449219 37.789062 38.449219zm149.210938-319.707031 55.847656 52.707031h-44.234375c-3.136719-.011719-6.136719-1.289062-8.324219-3.539062s-3.371093-5.289063-3.289062-8.425782zm91-65.371094 55.988281 53.078125h-44.234375c-6.617187 0-11.753906-5.722656-11.753906-12.339844zm-171 11.527344c0-12.128907 9.800781-22.449219 21.925781-22.449219h133.074219v51.660156c0 15.441406 12.3125 28.339844 27.753906 28.339844h56.246094v212.175781c.035156 5.792969-2.25 11.359375-6.339844 15.457031-4.09375 4.101563-9.65625 6.390626-15.445312 6.367188h-53.214844v-176.964844c.015625-2.207031-.886719-4.320312-2.492188-5.835937l-84.4375-79.125c-1.488281-1.363281-3.4375-2.105469-5.457031-2.074219h-71.613281zm-91 187.589843v-122.214843c-.035156-5.792969 2.25-11.359375 6.339844-15.457031 4.09375-4.101563 9.65625-6.390626 15.449218-6.367188h133.210938v51.035156c-.078125 7.378906 2.796875 14.484375 7.980469 19.734375 5.1875 5.25 12.253906 8.214844 19.632812 8.230469h56.386719v212.550781c0 12.128907-9.800781 22.449219-21.925781 22.449219h-195.285157c-12.132812 0-21.789062-10.320312-21.789062-22.449219zm0 0" data-original="#000000" class="active-path" data-old_color="#000000" fill="#180D5C"/><path d="m203.425781 348h-135.992187c-4.417969 0-8 3.582031-8 8s3.582031 8 8 8h135.992187c4.417969 0 8-3.582031 8-8s-3.582031-8-8-8zm0 0" data-original="#000000" class="active-path" data-old_color="#000000" fill="#180D5C"/><path d="m104.691406 283.183594-34.179687-34.183594 34.179687-34.183594-11.3125-11.3125-45.496094 45.496094 45.496094 45.496094zm0 0" data-original="#000000" class="active-path" data-old_color="#000000" fill="#180D5C"/><path d="m176.621094 294.496094 45.496094-45.496094-45.496094-45.496094-11.3125 11.3125 34.179687 34.183594-34.179687 34.183594zm0 0" data-original="#000000" class="active-path" data-old_color="#000000" fill="#180D5C"/><path d="m110.308594 309.394531 33.945312-124.976562 15.441406 4.195312-33.945312 124.972657zm0 0" data-original="#000000" class="active-path" data-old_color="#000000" fill="#180D5C"/></g> </svg>
