<?xml version="1.0"?>
<svg xmlns="http://www.w3.org/2000/svg" xmlns:xlink="http://www.w3.org/1999/xlink" version="1.1" id="Capa_1" x="0px" y="0px" viewBox="0 0 512 512" style="enable-background:new 0 0 512 512;" xml:space="preserve" width="512px" height="512px" class=""><g><g>
	<g>
		<path d="M436,0H76c-8.284,0-15,6.716-15,15v482c0,8.284,6.716,15,15,15h360c8.284,0,15-6.716,15-15V15C451,6.716,444.284,0,436,0z     M421,482H91V30h330V482z" data-original="#000000" class="active-path" data-old_color="#000000" fill="#1E2E8A"/>
	</g>
</g><g>
	<g>
		<path d="M196,60h-60c-8.284,0-15,6.716-15,15s6.716,15,15,15h60c8.284,0,15-6.716,15-15S204.284,60,196,60z" data-original="#000000" class="active-path" data-old_color="#000000" fill="#1E2E8A"/>
	</g>
</g><g>
	<g>
		<path d="M336,182h-60c-8.284,0-15,6.716-15,15s6.716,15,15,15h60c8.284,0,15-6.716,15-15S344.284,182,336,182z" data-original="#000000" class="active-path" data-old_color="#000000" fill="#1E2E8A"/>
	</g>
</g><g>
	<g>
		<path d="M376,222H276c-8.284,0-15,6.716-15,15s6.716,15,15,15h100c8.284,0,15-6.716,15-15S384.284,222,376,222z" data-original="#000000" class="active-path" data-old_color="#000000" fill="#1E2E8A"/>
	</g>
</g><g>
	<g>
		<path d="M336,262h-60c-8.284,0-15,6.716-15,15s6.716,15,15,15h60c8.284,0,15-6.716,15-15S344.284,262,336,262z" data-original="#000000" class="active-path" data-old_color="#000000" fill="#1E2E8A"/>
	</g>
</g><g>
	<g>
		<path d="M376,60h-20c-8.284,0-15,6.716-15,15s6.716,15,15,15h20c8.284,0,15-6.716,15-15S384.284,60,376,60z" data-original="#000000" class="active-path" data-old_color="#000000" fill="#1E2E8A"/>
	</g>
</g><g>
	<g>
		<path d="M316,60h-20c-8.284,0-15,6.716-15,15s6.716,15,15,15h20c8.284,0,15-6.716,15-15S324.284,60,316,60z" data-original="#000000" class="active-path" data-old_color="#000000" fill="#1E2E8A"/>
	</g>
</g><g>
	<g>
		<path d="M216,182h-80c-8.284,0-15,6.716-15,15v80c0,8.284,6.716,15,15,15h80c8.284,0,15-6.716,15-15v-80    C231,188.716,224.284,182,216,182z M201,262h-50v-50h50V262z" data-original="#000000" class="active-path" data-old_color="#000000" fill="#1E2E8A"/>
	</g>
</g><g>
	<g>
		<path d="M236,332h-60c-8.284,0-15,6.716-15,15s6.716,15,15,15h60c8.284,0,15-6.716,15-15S244.284,332,236,332z" data-original="#000000" class="active-path" data-old_color="#000000" fill="#1E2E8A"/>
	</g>
</g><g>
	<g>
		<path d="M236,372H136c-8.284,0-15,6.716-15,15s6.716,15,15,15h100c8.284,0,15-6.716,15-15S244.284,372,236,372z" data-original="#000000" class="active-path" data-old_color="#000000" fill="#1E2E8A"/>
	</g>
</g><g>
	<g>
		<path d="M236,412H136c-8.284,0-15,6.716-15,15s6.716,15,15,15h100c8.284,0,15-6.716,15-15S244.284,412,236,412z" data-original="#000000" class="active-path" data-old_color="#000000" fill="#1E2E8A"/>
	</g>
</g><g>
	<g>
		<path d="M376,332h-80c-8.284,0-15,6.716-15,15v80c0,8.284,6.716,15,15,15h80c8.284,0,15-6.716,15-15v-80    C391,338.716,384.284,332,376,332z M361,412h-50v-50h50V412z" data-original="#000000" class="active-path" data-old_color="#000000" fill="#1E2E8A"/>
	</g>
</g></g> </svg>
