<?xml version="1.0"?>
<svg xmlns="http://www.w3.org/2000/svg" xmlns:xlink="http://www.w3.org/1999/xlink" version="1.1" id="Capa_1" x="0px" y="0px" viewBox="0 0 512 512" style="enable-background:new 0 0 512 512;" xml:space="preserve" width="512px" height="512px" class=""><g><g>
	<g>
		<path d="M172.797,261.146h-31.004c-36.154,0-65.567,29.413-65.567,65.567v38.107h30v-38.107c0-19.612,15.955-35.567,35.567-35.567    h31.004c19.612,0,35.567,15.955,35.567,35.567v38.107h30v-38.107C238.364,290.559,208.951,261.146,172.797,261.146z" data-original="#000000" class="active-path" data-old_color="#000000" fill="#1E2E8A"/>
	</g>
</g><g>
	<g>
		<path d="M156.758,144.179c-29.481,0-53.466,23.984-53.466,53.465c0,29.482,23.985,53.466,53.466,53.466    s53.465-23.984,53.465-53.466C210.223,168.164,186.239,144.179,156.758,144.179z M156.758,221.111    c-12.939,0-23.466-10.526-23.466-23.466c0-12.939,10.527-23.465,23.466-23.465c12.939,0,23.465,10.526,23.465,23.465    C180.223,210.584,169.697,221.111,156.758,221.111z" data-original="#000000" class="active-path" data-old_color="#000000" fill="#1E2E8A"/>
	</g>
</g><g>
	<g>
		<path d="M0,91.008v329.984h512V91.008H0z M482,390.992H30V121.008h452V390.992z" data-original="#000000" class="active-path" data-old_color="#000000" fill="#1E2E8A"/>
	</g>
</g><g>
	<g>
		<rect x="296" y="172.65" width="130" height="30" data-original="#000000" class="active-path" data-old_color="#000000" fill="#1E2E8A"/>
	</g>
</g><g>
	<g>
		<rect x="296" y="241" width="130" height="30" data-original="#000000" class="active-path" data-old_color="#000000" fill="#1E2E8A"/>
	</g>
</g><g>
	<g>
		<rect x="296" y="309.36" width="130" height="30" data-original="#000000" class="active-path" data-old_color="#000000" fill="#1E2E8A"/>
	</g>
</g></g> </svg>
