<?xml version="1.0"?>
<svg xmlns="http://www.w3.org/2000/svg" xmlns:xlink="http://www.w3.org/1999/xlink" version="1.1" id="Capa_1" x="0px" y="0px" viewBox="0 0 512 512" style="enable-background:new 0 0 512 512;" xml:space="preserve" width="512px" height="512px" class=""><g><g>
	<g>
		<path d="M114.21,3.128c-4.165-4.166-10.919-4.167-15.085-0.002l-96,96l15.083,15.083L96,36.416v48.917    C96,91.224,91.224,96,85.333,96h-32v21.333h32v0c17.673,0,32-14.327,32-32V10.667C117.333,7.839,116.209,5.127,114.21,3.128z" data-original="#000000" class="active-path" data-old_color="#000000" fill="#1E2E8A"/>
	</g>
</g><g>
	<g>
		<path d="M288,0H106.667c-2.829,0.001-5.541,1.125-7.541,3.125l-96,96c-2,2-3.125,4.713-3.125,7.541v288    C0.035,424.107,23.893,447.965,53.333,448h192v-21.333h-192c-17.673,0-32-14.327-32-32V111.083l89.749-89.749H288    c17.673,0,32,14.327,32,32V224h21.333V53.333C341.298,23.893,317.441,0.035,288,0z" data-original="#000000" class="active-path" data-old_color="#000000" fill="#1E2E8A"/>
	</g>
</g><g>
	<g>
		<path d="M266.667,42.667h-21.333V64h21.333c5.891,0,10.667,4.776,10.667,10.667V96h21.333V74.667    C298.667,56.994,284.34,42.667,266.667,42.667z" data-original="#000000" class="active-path" data-old_color="#000000" fill="#1E2E8A"/>
	</g>
</g><g>
	<g>
		<rect x="202.667" y="42.667" width="21.333" height="21.333" data-original="#000000" class="active-path" data-old_color="#000000" fill="#1E2E8A"/>
	</g>
</g><g>
	<g>
		<path d="M448,298.667h-0.757c-4.709-32.813-30.489-58.592-63.302-63.302c-40.819-5.858-78.659,22.483-84.517,63.302h-0.757    c-35.346,0-64,28.654-64,64s28.654,64,64,64H448c35.346,0,64-28.654,64-64S483.346,298.667,448,298.667z M448,405.333H298.667    c-23.564,0-42.667-19.103-42.667-42.667S275.103,320,298.667,320h10.667c5.891,0,10.667-4.776,10.667-10.667    C320,279.878,343.878,256,373.333,256s53.333,23.878,53.333,53.333c0,5.891,4.776,10.667,10.667,10.667H448    c23.564,0,42.667,19.103,42.667,42.667S471.564,405.333,448,405.333z" data-original="#000000" class="active-path" data-old_color="#000000" fill="#1E2E8A"/>
	</g>
</g><g>
	<g>
		<path d="M408.459,451.125L384,475.584V362.667h-21.333v138.667c-0.001,4.314,2.596,8.204,6.581,9.856    c1.294,0.54,2.683,0.815,4.085,0.811c2.829-0.001,5.541-1.125,7.541-3.125l42.667-42.667L408.459,451.125z" data-original="#000000" class="active-path" data-old_color="#000000" fill="#1E2E8A"/>
	</g>
</g><g>
	<g>
		
			<rect x="341.386" y="449.836" transform="matrix(0.7071 -0.7071 0.7071 0.7071 -236.3023 389.5285)" width="21.333" height="60.342" data-original="#000000" class="active-path" data-old_color="#000000" fill="#1E2E8A"/>
	</g>
</g><g>
	<g>
		<rect x="64" y="170.667" width="213.333" height="21.333" data-original="#000000" class="active-path" data-old_color="#000000" fill="#1E2E8A"/>
	</g>
</g><g>
	<g>
		<rect x="64" y="224" width="213.333" height="21.333" data-original="#000000" class="active-path" data-old_color="#000000" fill="#1E2E8A"/>
	</g>
</g><g>
	<g>
		<rect x="64" y="277.333" width="170.667" height="21.333" data-original="#000000" class="active-path" data-old_color="#000000" fill="#1E2E8A"/>
	</g>
</g><g>
	<g>
		<rect x="64" y="330.667" width="149.333" height="21.333" data-original="#000000" class="active-path" data-old_color="#000000" fill="#1E2E8A"/>
	</g>
</g></g> </svg>
