<?xml version="1.0"?>
<svg xmlns="http://www.w3.org/2000/svg" xmlns:xlink="http://www.w3.org/1999/xlink" version="1.1" id="Capa_1" x="0px" y="0px" viewBox="0 0 480 480" style="enable-background:new 0 0 480 480;" xml:space="preserve" width="512px" height="512px" class=""><g><g>
	<path style="fill:#1E2E8A" d="M56,120H8v304c0.04,26.493,21.507,47.96,48,48c26.51,0,48-21.49,48-48l0,0V120H56z" data-original="#78B9EB" class="active-path" data-old_color="#78B9EB"/>
	<path style="fill:#1E2E8A" d="M344,136h-96h-40l8,192h160l8-192H344z" data-original="#78B9EB" class="active-path" data-old_color="#78B9EB"/>
</g><g>
	<path style="fill:#1E2E8A" d="M472,0H104c-4.418,0-8,3.582-8,8v104H8c-4.418,0-8,3.582-8,8v304c0.04,30.911,25.089,55.96,56,56   h368c30.911-0.04,55.96-25.089,56-56V8C480,3.582,476.418,0,472,0z M16,424V128h32v304h16V128h32v296   c-0.026,22.08-17.92,39.974-40,40C33.925,463.96,16.04,446.075,16,424z M464,424c-0.026,22.08-17.92,39.974-40,40H95.2   c0.072-0.08,0.144-0.168,0.224-0.248c0.592-0.584,1.144-1.224,1.712-1.84s1.328-1.4,1.952-2.144s0.992-1.312,1.496-1.968   c0.592-0.8,1.208-1.552,1.768-2.4c0.456-0.68,0.864-1.4,1.296-2.096c0.52-0.848,1.064-1.672,1.544-2.544   c0.4-0.728,0.736-1.504,1.104-2.256c0.432-0.88,0.896-1.744,1.28-2.656s0.616-1.656,0.928-2.488s0.696-1.76,0.976-2.672   s0.504-1.896,0.744-2.84s0.48-1.688,0.656-2.552c0.232-1.12,0.368-2.272,0.536-3.416c0.104-0.728,0.256-1.432,0.328-2.168   c0.181-1.898,0.267-3.805,0.256-5.712V16h352V424z" data-original="#1E81CE" class="" data-old_color="#1E81CE"/>
	<path style="fill:#1E2E8A" d="M216,336h160c4.29,0.004,7.82-3.377,8-7.664l8-192c0.186-4.414-3.243-8.143-7.657-8.329   C384.229,128.002,384.114,128,384,128h-32V88c-0.026-22.08-17.92-39.974-40-40h-32c-22.08,0.026-39.974,17.92-40,40v40h-32   c-4.418-0.004-8.003,3.575-8.007,7.993c0,0.114,0.002,0.229,0.007,0.343l8,192C208.18,332.623,211.71,336.004,216,336z M256,88   c0-13.255,10.745-24,24-24h32c13.255,0,24,10.745,24,24v40h-80V88z M240,144v40h16v-40h80v40h16v-40h23.656l-7.328,176H223.672   l-7.328-176H240z" data-original="#1E81CE" class="" data-old_color="#1E81CE"/>
	<path style="fill:#1E2E8A" d="M160,368h16v16h-16V368z" data-original="#1E81CE" class="" data-old_color="#1E81CE"/>
	<path style="fill:#1E2E8A" d="M192,368h240v16H192V368z" data-original="#1E81CE" class="" data-old_color="#1E81CE"/>
	<path style="fill:#1E2E8A" d="M160,400h272v16H160V400z" data-original="#1E81CE" class="" data-old_color="#1E81CE"/>
</g></g> </svg>
