<?xml version="1.0"?>
<svg xmlns="http://www.w3.org/2000/svg" height="512px" viewBox="0 -46 512 512" width="512px" class=""><g><path d="m302 90v150h-32c0-10.300781 0-226.902344 0-240-14.578125 0-255.433594 0-270 0v360h60c0 33.085938 26.914062 60 60 60s60-26.914062 60-60h152c0 33.085938 26.914062 60 60 60s60-26.914062 60-60h60v-198.539062l-35.730469-71.460938zm60 30v60h-30v-60zm-192.640625 0 70.640625-76.195312v76.195312zm42.53125 30-61.890625 66.757812v-66.757812zm-91.890625-30h-70.640625l70.640625-76.195312zm-90 30h61.890625l-61.890625 66.757812zm90 13.804688v76.195312h-70.640625zm120 0v76.195312h-70.640625zm-28.109375-133.804688-61.890625 66.757812v-66.757812zm-120 0-61.890625 66.757812v-66.757812zm28.109375 360c-16.542969 0-30-13.457031-30-30s13.457031-30 30-30 30 13.457031 30 30-13.457031 30-30 30zm51.929688-60c-10.394532-17.914062-29.769532-30-51.929688-30s-41.535156 12.085938-51.929688 30h-38.070312v-60h272v60zm220.070312 60c-16.542969 0-30-13.457031-30-30s13.457031-30 30-30 30 13.457031 30 30-13.457031 30-30 30zm51.929688-60c-10.394532-17.914062-29.769532-30-51.929688-30s-41.535156 12.085938-51.929688 30h-8.070312v-120h38.785156l30 30h81.214844v30h-30v30h30v30c-13.046875 0-24.773438 0-38.070312 0zm38.070312-120h-68.785156l-21.214844-21.214844v-68.785156h65.730469l24.269531 48.539062zm0 0" data-original="#000000" class="active-path" data-old_color="#000000" fill="#1E2E8A"/></g> </svg>
